<?xml version="1.0" standalone="no"?>
<!DOCTYPE svg PUBLIC "-//W3C//DTD SVG 20010904//EN"
 "http://www.w3.org/TR/2001/REC-SVG-20010904/DTD/svg10.dtd">
<svg version="1.0" xmlns="http://www.w3.org/2000/svg"
 width="259.000000pt" height="259.000000pt" viewBox="0 0 259.000000 259.000000"
 preserveAspectRatio="xMidYMid meet">
<metadata>
Created by potrace 1.11, written by Peter Selinger 2001-2013
</metadata>
<g transform="translate(0.000000,259.000000) scale(0.100000,-0.100000)"
fill="#000000" stroke="none">
<path d="M1260 2546 c0 -2 8 -10 18 -17 15 -13 16 -12 3 4 -13 16 -21 21 -21
13z"/>
<path d="M1070 2510 c0 -5 5 -10 11 -10 5 0 7 5 4 10 -3 6 -8 10 -11 10 -2 0
-4 -4 -4 -10z"/>
<path d="M1272 2500 c7 -11 19 -22 28 -25 8 -4 4 5 -9 19 -29 31 -36 33 -19 6z"/>
<path d="M1240 2506 c0 -2 8 -10 18 -17 15 -13 16 -12 3 4 -13 16 -21 21 -21
13z"/>
<path d="M895 2490 c3 -5 8 -10 11 -10 2 0 4 5 4 10 0 6 -5 10 -11 10 -5 0 -7
-4 -4 -10z"/>
<path d="M1210 2496 c0 -2 7 -9 15 -16 13 -11 14 -10 9 4 -5 14 -24 23 -24 12z"/>
<path d="M1362 2474 c10 -10 20 -15 24 -12 3 4 -5 12 -18 18 -22 12 -22 12 -6
-6z"/>
<path d="M1100 2446 c0 -2 8 -10 18 -17 15 -13 16 -12 3 4 -13 16 -21 21 -21
13z"/>
<path d="M1230 2446 c0 -2 8 -10 18 -17 15 -13 16 -12 3 4 -13 16 -21 21 -21
13z"/>
<path d="M1170 2436 c0 -2 7 -7 16 -10 8 -3 12 -2 9 4 -6 10 -25 14 -25 6z"/>
<path d="M1156 2412 c-3 -5 1 -9 9 -9 8 0 12 4 9 9 -3 4 -7 8 -9 8 -2 0 -6 -4
-9 -8z"/>
<path d="M785 2390 c-3 -6 1 -7 9 -4 18 7 21 14 7 14 -6 0 -13 -4 -16 -10z"/>
<path d="M860 2365 c13 -14 26 -25 28 -25 3 0 -5 11 -18 25 -13 14 -26 25 -28
25 -3 0 5 -11 18 -25z"/>
<path d="M913 2365 c-7 -8 -9 -16 -4 -19 5 -3 12 1 15 10 8 22 4 25 -11 9z"/>
<path d="M1340 2371 c0 -5 7 -12 16 -15 14 -5 15 -4 4 9 -14 17 -20 19 -20 6z"/>
<path d="M1064 2352 c23 -26 22 -26 30 -6 3 9 2 12 -5 9 -5 -4 -18 -1 -27 6
-13 11 -12 8 2 -9z"/>
<path d="M1320 2355 c15 -18 0 -20 -20 -2 -8 6 -6 2 5 -11 11 -13 21 -19 23
-13 2 6 9 8 15 4 7 -3 3 3 -7 15 -21 25 -36 31 -16 7z"/>
<path d="M1490 2350 c0 -5 5 -10 11 -10 5 0 7 5 4 10 -3 6 -8 10 -11 10 -2 0
-4 -4 -4 -10z"/>
<path d="M970 2285 c19 -19 36 -35 39 -35 3 0 -10 16 -29 35 -19 19 -36 35
-39 35 -3 0 10 -16 29 -35z"/>
<path d="M1510 2266 c24 -25 46 -46 49 -46 3 0 -8 13 -23 29 -18 19 -25 34
-20 43 4 7 4 10 -1 6 -4 -4 -17 -2 -29 4 -11 6 -1 -10 24 -36z"/>
<path d="M1380 2296 c0 -2 8 -10 18 -17 15 -13 16 -12 3 4 -13 16 -21 21 -21
13z"/>
<path d="M715 2281 c6 -11 4 -13 -10 -7 -18 6 -18 6 1 -15 l19 -22 -24 12
c-33 18 -51 -1 -26 -29 20 -22 41 -28 28 -7 -4 6 5 4 20 -6 25 -16 26 -16 20
0 -6 16 -5 16 10 4 16 -12 17 -12 10 5 -6 17 -5 17 10 5 9 -7 17 -9 17 -3 0 5
-7 12 -15 16 -8 3 -15 10 -15 16 0 6 5 8 10 5 16 -10 12 11 -5 25 -13 11 -14
10 -9 -5 7 -16 5 -16 -22 1 -19 13 -25 14 -19 5z m33 -53 c-7 -4 -17 -8 -23
-8 -5 0 -4 4 4 9 13 8 13 12 1 28 -13 16 -12 16 8 -1 17 -15 19 -22 10 -28z"/>
<path d="M1306 2277 c3 -10 9 -15 12 -12 3 3 0 11 -7 18 -10 9 -11 8 -5 -6z"/>
<path d="M1415 2230 c28 -31 52 -54 55 -53 2 2 -20 27 -50 56 l-54 52 49 -55z"/>
<path d="M1455 2270 c-8 -14 0 -25 38 -52 26 -18 29 -19 17 -3 -14 17 -13 18
5 11 16 -6 14 -1 -9 23 -32 33 -41 37 -51 21z m45 -32 c0 -12 -6 -9 -26 13
-19 22 -19 22 4 8 12 -8 22 -17 22 -21z"/>
<path d="M1368 2249 c23 -26 31 -52 10 -31 -7 7 -16 12 -21 12 -5 0 -1 -7 8
-16 9 -9 19 -14 22 -10 4 3 17 -1 30 -9 34 -23 28 -14 -24 35 -26 25 -38 33
-25 19z"/>
<path d="M1130 2256 c0 -2 8 -10 18 -17 15 -13 16 -12 3 4 -13 16 -21 21 -21
13z"/>
<path d="M1330 2251 c0 -6 -8 -8 -17 -4 -14 5 -12 0 6 -20 14 -15 29 -27 35
-27 5 0 1 7 -10 15 -15 12 -16 16 -5 24 9 6 10 11 2 15 -6 4 -11 3 -11 -3z"/>
<path d="M1420 2257 c0 -2 14 -16 31 -33 18 -17 28 -22 24 -12 -6 14 -55 55
-55 45z"/>
<path d="M1303 2214 c21 -23 37 -45 35 -50 -4 -12 27 -48 88 -104 30 -27 22
-17 -21 28 -38 39 -65 72 -59 72 5 0 15 -5 22 -12 6 -6 13 -10 15 -7 1 2 -24
29 -58 59 -41 38 -48 42 -22 14z"/>
<path d="M643 2227 c6 -15 4 -16 -13 -7 -16 9 -18 8 -13 -6 5 -12 3 -15 -6 -9
-18 10 2 -27 23 -44 17 -14 66 -22 66 -11 0 4 9 11 19 16 17 8 17 11 5 22 -11
10 -14 10 -14 0 0 -6 -16 4 -37 23 -22 20 -34 27 -30 16z m42 -47 c10 -11 14
-20 9 -20 -5 0 -15 9 -22 20 -7 11 -11 20 -9 20 2 0 12 -9 22 -20z m-24 -7
c13 -16 12 -17 -3 -4 -17 13 -22 21 -14 21 2 0 10 -8 17 -17z"/>
<path d="M920 2236 c0 -2 7 -9 15 -16 9 -7 15 -8 15 -2 0 5 -7 12 -15 16 -8 3
-15 4 -15 2z"/>
<path d="M966 2212 c-2 -4 4 -8 14 -8 10 0 16 4 14 8 -3 4 -9 8 -14 8 -5 0
-11 -4 -14 -8z"/>
<path d="M900 2204 c0 -5 15 -23 32 -40 18 -16 24 -19 14 -7 -10 12 -15 27
-10 34 5 8 3 10 -6 4 -7 -4 -16 -2 -21 6 -5 8 -9 9 -9 3z"/>
<path d="M1074 2199 c-3 -6 -1 -16 4 -21 8 -8 11 -5 9 11 -1 24 -3 25 -13 10z"/>
<path d="M1186 2198 c5 -8 2 -9 -12 -4 -12 5 -7 -5 15 -28 39 -40 43 -43 35
-21 -4 8 -10 15 -15 15 -5 0 -9 5 -9 11 0 5 6 7 13 3 6 -4 3 2 -7 14 -21 24
-32 29 -20 10z"/>
<path d="M1264 2193 c19 -23 32 -31 21 -13 -9 14 8 12 25 -2 12 -11 12 -10 0
5 -7 10 -19 16 -25 13 -7 -2 -19 1 -26 7 -7 7 -5 2 5 -10z"/>
<path d="M589 2183 c10 -19 36 -43 61 -58 8 -4 -3 11 -25 34 -43 45 -51 50
-36 24z"/>
<path d="M548 2161 c-15 -18 -15 -21 0 -33 14 -11 15 -11 9 6 -6 16 -5 17 8 6
11 -10 13 -15 4 -20 -8 -6 -8 -9 1 -15 8 -5 9 -10 2 -14 -7 -4 -5 -13 4 -25
13 -19 14 -19 14 -2 0 16 2 17 18 5 9 -7 7 -2 -5 12 -24 26 -31 45 -13 34 18
-11 11 8 -12 34 -19 21 -17 20 10 -3 36 -33 45 -22 9 12 -28 27 -29 27 -49 3z"/>
<path d="M1250 2172 c0 -6 6 -12 13 -15 6 -2 9 -8 5 -12 -4 -4 -16 -2 -25 6
-17 12 -17 12 -2 -5 13 -14 21 -16 37 -7 17 9 26 6 54 -16 l33 -27 -30 32
c-16 18 -34 31 -40 28 -5 -2 -18 3 -27 12 -10 8 -18 10 -18 4z"/>
<path d="M870 2161 c0 -5 5 -13 10 -16 6 -3 10 -2 10 4 0 5 -4 13 -10 16 -5 3
-10 2 -10 -4z"/>
<path d="M865 2132 c17 -19 35 -30 44 -27 8 3 28 -7 45 -22 17 -15 24 -20 17
-10 -15 19 -1 23 18 5 10 -11 11 -10 6 2 -4 8 -25 31 -48 50 -22 19 -37 29
-33 23 4 -7 3 -20 -2 -29 -7 -13 -13 -12 -43 12 l-34 28 30 -32z m85 -22 c6
-11 9 -20 7 -20 -2 0 -12 9 -22 20 -10 11 -13 20 -7 20 6 0 16 -9 22 -20z"/>
<path d="M818 2119 c31 -35 28 -48 -5 -18 l-27 24 16 -25 c8 -14 25 -25 36
-25 21 0 92 -61 92 -79 0 -6 -20 10 -45 34 -25 24 -45 38 -45 30 0 -9 -10 -4
-28 13 -42 40 -51 33 -11 -9 24 -25 28 -33 14 -28 -20 7 -20 7 -1 -15 11 -12
26 -19 33 -17 13 6 28 -10 16 -17 -5 -2 -2 -2 5 0 7 1 10 -1 7 -7 -6 -10 33
-60 47 -60 5 0 6 5 2 12 -5 8 -2 9 11 4 16 -6 16 -4 4 10 -8 10 -15 12 -17 5
-2 -6 -8 -11 -14 -11 -6 0 -7 7 -4 16 3 8 2 12 -3 9 -5 -3 -12 -1 -16 5 -3 5
-1 10 5 10 6 0 8 5 5 10 -13 21 10 9 44 -22 18 -18 30 -27 26 -19 -6 11 -4 13
10 7 15 -5 16 -4 5 9 -9 11 -15 12 -20 5 -5 -7 -11 -6 -20 5 -10 12 -10 15 1
15 7 0 -13 27 -46 60 -32 33 -57 62 -54 65 3 2 25 -16 49 -40 24 -25 48 -45
52 -45 4 0 -16 21 -44 48 -28 26 -55 46 -60 44 -6 -1 -18 3 -27 10 -9 7 -6 1
7 -13z m52 -86 c11 -10 20 -21 20 -26 0 -5 -6 -4 -14 2 -7 6 -21 9 -30 5 -9
-3 -16 -1 -16 5 0 6 5 11 11 11 5 0 7 5 4 10 -10 15 3 12 25 -7z"/>
<path d="M520 2121 c0 -7 -4 -9 -10 -6 -5 3 -10 1 -10 -5 0 -7 6 -10 14 -7 7
3 19 0 25 -6 6 -6 13 -8 16 -5 3 2 -4 13 -15 23 -12 11 -20 13 -20 6z"/>
<path d="M1410 2111 c0 -10 19 -25 25 -20 1 2 -3 10 -11 17 -8 7 -14 8 -14 3z"/>
<path d="M1120 2097 c0 -4 -4 -6 -9 -3 -12 8 -23 -23 -14 -37 4 -7 -2 -5 -12
3 -17 14 -18 13 -12 -2 4 -10 2 -18 -5 -18 -6 0 -5 -6 3 -17 12 -14 10 -14
-13 1 -28 18 -33 14 -29 -21 1 -8 -5 -10 -15 -6 -11 4 -15 3 -11 -4 4 -6 2
-13 -4 -15 -7 -2 -5 -9 5 -17 14 -12 16 -12 10 3 -6 16 10 23 19 9 2 -5 2 -2
0 6 -3 11 -1 12 12 1 11 -9 15 -9 15 -1 0 9 6 9 23 0 20 -11 21 -11 8 4 -16
20 -1 23 18 5 11 -11 11 -9 1 12 -13 24 -12 25 7 8 11 -10 24 -18 29 -18 5 0
5 4 -1 8 -5 4 -17 16 -25 26 -15 19 -14 19 11 3 14 -10 29 -14 32 -11 4 4 15
1 24 -7 10 -7 8 -2 -4 12 -24 26 -31 45 -13 34 14 -9 12 8 -2 25 -7 8 2 2 19
-14 18 -16 30 -32 27 -35 -3 -3 -9 1 -14 9 -5 8 -11 12 -14 9 -3 -3 4 -15 17
-27 l23 -22 -1 24 c0 13 -9 33 -19 45 -11 12 -16 21 -12 21 11 0 71 -73 68
-83 -1 -4 2 -6 8 -2 6 4 19 1 28 -6 9 -7 2 3 -16 23 -21 22 -29 37 -22 40 8 2
7 8 -4 17 -14 12 -16 11 -10 -5 6 -16 4 -16 -18 4 -14 13 -29 22 -34 21 -5 -1
-11 0 -14 1 -14 7 -60 5 -60 -3z m-65 -95 c-3 -3 -11 0 -18 7 -9 10 -8 11 6 5
10 -3 15 -9 12 -12z"/>
<path d="M520 2092 c0 -6 -8 -9 -17 -6 -15 5 -15 4 -3 -5 8 -5 11 -13 7 -17
-3 -4 -15 -1 -24 7 -14 11 -14 9 2 -9 11 -13 21 -19 23 -12 3 8 7 8 17 0 9 -7
20 -8 30 -3 13 8 12 12 -10 33 -14 13 -25 18 -25 12z m20 -27 c7 -9 8 -15 2
-15 -5 0 -12 7 -16 15 -3 8 -4 15 -2 15 2 0 9 -7 16 -15z"/>
<path d="M610 2096 c0 -2 7 -9 15 -16 13 -11 14 -10 9 4 -5 14 -24 23 -24 12z"/>
<path d="M1337 2083 c6 -16 5 -17 -12 -3 -17 14 -18 13 -12 -3 6 -16 5 -16
-20 0 -26 17 -26 17 -13 -6 7 -15 8 -21 1 -17 -22 14 -10 -5 24 -39 42 -43 60
-47 20 -5 -30 31 -25 42 7 13 13 -11 18 -12 18 -3 0 10 3 10 15 0 13 -11 14
-10 9 4 -9 23 5 20 27 -6 11 -11 19 -17 19 -11 0 11 -42 53 -54 53 -4 0 -4 -6
0 -12 6 -10 3 -9 -8 0 -9 8 -15 19 -12 27 3 7 1 16 -5 20 -7 4 -8 -1 -4 -12z"/>
<path d="M915 2080 c3 -5 8 -10 11 -10 2 0 4 5 4 10 0 6 -5 10 -11 10 -5 0 -7
-4 -4 -10z"/>
<path d="M1361 2088 c2 -2 22 -19 44 -38 l40 -35 -34 38 c-19 20 -39 37 -45
37 -5 0 -7 -1 -5 -2z"/>
<path d="M774 2061 c21 -23 26 -26 26 -11 0 5 -10 15 -22 21 -23 12 -23 12 -4
-10z"/>
<path d="M760 2039 c0 -5 -6 -7 -12 -3 -8 5 -6 -2 3 -16 9 -14 26 -26 38 -26
22 -1 65 -33 56 -42 -3 -3 -16 5 -30 18 -16 15 -25 19 -25 10 0 -8 -11 -3 -28
13 -41 40 -52 33 -12 -8 24 -25 36 -31 42 -23 5 9 18 1 43 -26 41 -45 46 -60
8 -25 -23 21 -25 22 -19 4 4 -13 -10 -3 -41 26 -63 59 -96 82 -58 40 l30 -34
-27 18 c-20 12 -28 14 -28 5 0 -9 -7 -7 -20 5 -20 18 -28 41 -11 30 6 -3 9 3
8 13 0 10 -7 19 -14 19 -8 0 -12 -6 -9 -14 7 -18 -4 -16 -26 4 -10 9 -18 13
-18 9 0 -4 18 -24 41 -44 28 -27 38 -43 33 -55 -3 -9 -10 -14 -15 -11 -5 3 -6
-2 -3 -10 3 -9 10 -16 16 -16 5 0 6 6 2 13 -4 6 5 1 19 -12 15 -14 27 -27 27
-29 0 -3 -9 3 -20 13 -16 14 -20 15 -20 4 0 -17 -36 -50 -44 -42 -10 10 -7 25
4 18 6 -3 10 -1 10 5 0 6 6 8 13 4 6 -4 1 6 -13 22 -14 16 -27 31 -29 34 -2 3
-1 -3 2 -12 11 -30 -8 -20 -51 29 -47 51 -56 69 -17 33 28 -27 34 -17 8 13
-10 11 -12 17 -5 13 6 -4 12 -3 12 2 0 18 -13 21 -27 7 -18 -19 -37 -19 -30
-1 4 10 0 12 -15 8 -11 -2 -22 -11 -25 -18 -3 -8 -9 -11 -14 -8 -5 3 -6 -2 -3
-11 5 -11 2 -14 -12 -9 -13 5 -7 -6 16 -31 34 -38 34 -38 6 -21 -28 18 -29 18
-22 0 6 -17 5 -16 -16 2 -18 15 -16 11 7 -21 16 -22 22 -34 13 -27 -8 7 -23 9
-32 6 -15 -6 -16 -8 -1 -24 14 -16 14 -18 0 -24 -9 -3 -21 -4 -26 0 -23 14 -6
-16 23 -40 17 -14 27 -26 22 -26 -6 0 -15 5 -22 12 -21 21 -13 -5 11 -31 l22
-26 -29 25 c-22 19 -28 21 -23 8 4 -10 2 -18 -3 -18 -6 0 -10 5 -10 10 0 6 -5
10 -11 10 -8 0 -7 -5 1 -15 7 -9 19 -14 26 -11 7 3 16 1 19 -4 4 -6 2 -10 -4
-10 -6 0 -8 -6 -5 -14 3 -8 0 -17 -7 -22 -8 -5 -10 -3 -4 6 5 9 4 11 -3 6 -17
-10 -15 -26 5 -48 9 -10 17 -28 18 -39 1 -16 -7 -12 -42 23 -23 23 -43 38 -43
32 0 -5 36 -45 80 -89 76 -75 95 -108 68 -117 -9 -3 -9 -6 0 -12 7 -4 12 -2
12 5 0 7 8 5 20 -6 14 -13 17 -21 9 -25 -7 -5 -3 -15 12 -29 14 -13 25 -17 29
-11 4 7 13 4 22 -7 13 -15 14 -20 3 -30 -11 -10 -14 -10 -18 0 -2 7 -8 9 -12
5 -4 -4 -2 -16 6 -25 13 -16 12 -17 -3 -5 -10 8 -16 23 -15 34 1 12 -4 23 -11
25 -8 3 -10 -1 -5 -14 6 -16 5 -16 -11 -4 -12 10 -14 16 -5 21 7 5 -2 21 -30
49 -25 25 -38 46 -35 56 4 9 -1 17 -11 21 -9 4 -14 13 -10 22 4 10 -11 33 -42
64 -26 26 -51 48 -55 48 -11 0 -49 -91 -42 -101 3 -5 0 -9 -7 -9 -7 0 2 -16
21 -35 38 -39 31 -48 -9 -12 -29 25 -15 4 31 -47 15 -16 25 -33 22 -37 -2 -4
1 -11 7 -15 8 -4 9 -3 5 4 -11 18 0 14 15 -5 10 -11 10 -14 2 -9 -8 4 -13 2
-13 -4 0 -6 -5 -8 -12 -4 -16 10 8 -22 39 -53 13 -12 23 -17 23 -12 0 6 4 8
10 4 5 -3 6 -13 3 -22 -6 -15 -5 -16 9 -3 15 14 15 17 0 35 -12 13 -7 11 14
-5 25 -21 28 -26 15 -32 -14 -6 -14 -7 1 -7 9 -1 20 4 23 9 3 6 12 10 18 10 9
0 9 -2 0 -8 -9 -6 -3 -18 24 -43 35 -33 37 -26 4 16 -8 11 3 3 25 -18 22 -20
47 -37 56 -37 9 0 20 -4 23 -10 3 -5 11 -10 17 -10 6 0 5 7 -3 18 -7 9 4 1 24
-17 20 -19 37 -37 37 -40 0 -3 -5 0 -12 7 -27 27 -29 9 -2 -20 16 -18 21 -26
12 -19 -25 19 -22 2 4 -28 13 -14 16 -20 8 -13 -20 17 -35 15 -20 -3 6 -8 9
-19 6 -24 -4 -5 -2 -12 4 -16 5 -3 10 -11 10 -16 0 -6 -5 -7 -12 -3 -14 9 -3
-12 26 -46 11 -14 14 -19 6 -12 -24 20 -34 13 -14 -10 19 -21 19 -21 0 -14
-16 5 -17 4 -7 -8 7 -8 10 -20 7 -25 -4 -5 -2 -12 3 -16 6 -3 8 -12 4 -21 -3
-8 5 -26 18 -41 l24 -26 -30 18 c-16 10 -25 13 -18 6 6 -8 9 -19 7 -25 -3 -7
4 -21 16 -31 21 -19 28 -41 8 -29 -7 4 -8 3 -4 -4 4 -6 12 -9 19 -6 7 2 28
-13 47 -33 35 -37 35 -38 3 -9 -52 47 -48 24 4 -29 37 -36 41 -43 18 -29 -27
17 -29 17 -16 1 8 -10 11 -20 8 -24 -4 -3 0 -15 8 -25 7 -11 11 -26 9 -33 -3
-7 -1 -16 5 -20 13 -7 1 -35 -27 -64 -52 -54 -62 -72 -56 -97 5 -19 9 -22 15
-12 6 9 9 4 9 -15 0 -16 4 -26 10 -22 6 3 10 -1 10 -9 0 -9 7 -16 15 -16 9 0
12 -6 9 -15 -5 -11 -2 -13 12 -8 14 5 16 3 11 -11 -4 -10 -3 -15 3 -11 6 3 15
3 21 -1 8 -4 7 -9 -2 -15 -7 -4 -10 -12 -5 -16 5 -4 11 -2 13 5 4 10 15 4 39
-19 18 -18 31 -35 29 -39 -2 -4 2 -7 10 -7 19 0 12 9 -46 64 -36 34 -46 49
-37 55 10 6 10 10 -2 17 -8 5 -17 8 -21 6 -3 -3 -15 5 -25 18 -18 20 -18 21 0
7 19 -15 39 -21 71 -22 11 0 14 -2 7 -5 -10 -4 -10 -8 -1 -19 10 -12 8 -13 -7
-8 -15 6 -17 4 -7 -6 14 -15 53 -21 53 -9 0 4 -6 10 -12 12 -8 3 -5 6 5 6 10
1 15 6 12 11 -4 6 -12 7 -18 4 -7 -4 -9 -3 -4 1 4 5 -1 18 -10 29 -10 12 -3 8
14 -8 17 -15 36 -25 43 -21 6 4 17 1 25 -5 10 -8 15 -9 15 -2 0 6 -6 15 -12
19 -7 4 -20 17 -28 28 -8 11 3 5 23 -14 20 -19 33 -38 27 -41 -5 -3 18 -33 51
-65 33 -33 57 -52 53 -42 -5 13 -2 16 12 11 15 -5 16 -4 5 4 -8 6 -19 8 -25 6
-13 -5 -83 63 -74 71 3 3 17 -7 31 -21 15 -15 27 -22 27 -16 0 7 -11 19 -24
28 -14 8 -37 32 -52 52 -15 20 -21 31 -14 25 26 -24 33 -13 9 15 l-24 27 27
-24 c15 -13 25 -28 22 -33 -5 -8 0 -15 51 -58 20 -16 16 -10 -10 18 -60 64
-29 50 45 -20 37 -37 46 -43 20 -15 -50 53 -44 64 10 15 19 -18 -1 4 -44 49
-44 45 -82 81 -84 78 -2 -2 15 -20 37 -40 23 -21 41 -42 41 -48 0 -6 -22 11
-50 38 -32 32 -46 52 -38 56 6 4 17 5 25 2 22 -9 15 9 -19 47 -30 32 -29 32 9
-4 24 -22 39 -43 33 -46 -5 -3 27 -41 70 -85 44 -43 80 -74 80 -69 0 6 -14 20
-30 33 -24 17 -29 27 -25 44 4 15 3 18 -3 9 -7 -10 -18 -5 -48 22 -21 19 -35
38 -31 42 4 4 13 1 20 -7 18 -22 52 -47 43 -31 -15 24 11 11 44 -23 26 -27 32
-38 22 -44 -11 -7 -10 -10 3 -14 9 -4 13 -3 10 3 -10 16 6 12 29 -7 12 -10
-15 20 -59 65 -98 101 -88 109 14 9 40 -39 70 -66 66 -58 -5 8 -23 28 -42 44
-36 32 -46 61 -10 31 12 -10 0 5 -27 34 -73 76 -50 74 26 -3 53 -53 67 -62 72
-49 4 11 -3 27 -21 46 -29 31 -22 38 11 11 12 -10 -8 13 -43 50 -36 36 -67 64
-70 62 -2 -3 4 -15 15 -27 10 -12 13 -18 7 -14 -7 4 -13 3 -13 -1 0 -5 -12 -9
-27 -8 -20 0 -28 5 -27 18 2 21 0 21 -21 1 -15 -15 -15 -18 1 -35 32 -35 8
-29 -26 6 -26 27 -31 38 -22 47 8 8 15 8 27 -2 8 -7 15 -9 15 -4 0 4 -27 34
-61 66 -38 35 -58 62 -53 69 4 8 3 9 -4 5 -8 -5 -10 -2 -6 8 8 20 20 20 28 1
3 -8 0 -15 -6 -15 -7 0 -6 -5 2 -15 8 -9 16 -12 19 -6 3 5 17 1 30 -11 18 -14
22 -21 12 -27 -9 -6 -8 -11 5 -22 16 -12 17 -12 12 3 -11 27 22 31 49 7 12
-13 23 -27 23 -33 0 -5 -13 3 -30 19 -37 36 -40 21 -3 -17 25 -26 51 -39 39
-19 -11 18 27 21 43 4 40 -42 152 -144 122 -111 -19 21 -31 41 -26 45 4 5 10
2 12 -4 3 -7 9 -13 15 -13 6 0 6 6 -2 15 -8 10 -9 15 -2 15 6 0 16 -8 21 -17
6 -10 11 -13 11 -7 0 6 -9 19 -20 29 -11 10 -20 13 -20 7 0 -7 -7 -9 -17 -5
-11 4 -14 3 -9 -5 4 -7 2 -12 -3 -12 -6 0 -10 10 -8 23 1 16 -3 22 -18 22 -21
0 -75 42 -75 59 0 5 16 -5 35 -24 19 -19 35 -29 35 -23 0 7 -13 21 -30 33 -16
12 -30 26 -30 33 0 6 15 -4 34 -22 24 -23 35 -29 39 -19 2 7 8 9 13 4 5 -5 4
-11 -4 -13 -10 -4 -9 -9 4 -24 13 -15 19 -16 25 -7 6 9 17 5 41 -17 18 -16 11
-6 -17 23 -54 57 -52 71 4 20 24 -22 28 -24 13 -7 -17 20 -20 28 -10 31 10 4
10 8 -2 24 -14 18 -14 18 8 0 14 -12 18 -22 12 -26 -6 -4 -2 -14 12 -26 17
-14 19 -15 9 -2 -7 9 -10 22 -6 28 4 7 -7 27 -26 46 -18 19 -28 34 -22 34 6 0
23 -16 37 -35 15 -19 32 -35 39 -35 6 0 -15 27 -48 60 -32 33 -61 57 -64 54
-3 -3 2 -10 12 -15 25 -15 22 -32 -4 -18 -15 8 -19 8 -15 0 4 -6 2 -11 -3 -11
-6 0 -11 5 -11 10 0 6 -5 10 -12 10 -6 0 -3 -9 7 -20 11 -12 21 -16 25 -10 4
6 13 5 26 -4 10 -8 15 -18 11 -22 -4 -5 -12 -2 -16 5 -5 7 -14 10 -21 6 -7 -4
-24 4 -41 21 -16 16 -29 22 -29 15 0 -11 -3 -11 -17 0 -10 7 2 -8 26 -34 63
-66 46 -68 -19 -2 -30 29 -57 52 -59 50 -2 -2 4 -12 13 -21 9 -9 14 -19 11
-23 -4 -3 -22 11 -41 32 -19 20 -37 37 -41 37 -4 0 13 -20 37 -45 27 -28 47
-41 51 -34 5 8 8 8 13 0 4 -6 2 -11 -4 -11 -6 0 -8 -4 -5 -10 3 -5 2 -10 -4
-10 -5 0 -11 3 -13 8 -1 4 -39 41 -83 82 l-80 74 68 -70 c89 -93 86 -107 -5
-19 -40 39 -65 61 -55 49 28 -34 19 -40 -13 -9 -18 17 -26 31 -20 35 7 5 7 10
-2 18 -10 8 -13 5 -14 -13 -1 -13 4 -26 12 -29 8 -3 14 -10 14 -16 0 -17 -23
0 -61 45 -22 26 -24 32 -8 18 38 -34 47 -28 13 9 -16 18 -20 25 -8 15 26 -22
41 -22 23 0 -9 11 -2 9 21 -7 l35 -24 -22 25 c-13 14 -23 29 -23 35 0 5 4 5 8
-1 4 -5 18 -19 32 -30 l25 -20 -25 30 c-14 16 -29 33 -35 37 -7 5 -6 8 1 8 5
0 16 -6 23 -12 12 -11 13 -9 7 7 -6 16 -1 14 23 -9 41 -39 40 -21 -1 23 -28
29 -25 28 14 -7 60 -53 71 -54 24 -2 -21 24 -33 46 -30 55 3 8 11 12 16 9 6
-4 6 -9 -2 -14 -12 -8 4 -28 70 -85 33 -29 34 -29 11 -3 -31 35 -22 47 9 13
13 -14 28 -25 33 -25 5 0 -1 9 -14 19 -13 11 -21 22 -17 26 4 4 20 -7 37 -24
17 -18 31 -28 31 -23 0 5 -7 15 -15 22 -9 7 -13 15 -10 18 3 3 17 -5 33 -19
26 -23 26 -23 -2 9 -18 19 -32 28 -36 22 -4 -7 -12 -5 -20 5 -11 13 -15 13
-22 3 -6 -10 -10 -10 -18 2 -6 10 -6 16 1 19 6 2 -2 17 -18 34 -15 18 -19 24
-7 14 23 -19 39 -23 29 -7 -3 6 1 7 9 4 9 -3 16 -1 16 6 0 6 19 -7 42 -29 49
-47 65 -46 22 2 -16 17 -5 10 24 -18 60 -57 70 -50 15 10 l-38 40 46 -43 c26
-24 46 -51 45 -60 -1 -11 7 -17 19 -17 11 0 21 -6 21 -13 1 -6 2 -16 3 -22 0
-5 6 -10 12 -10 8 0 8 5 -1 15 -10 12 -10 15 0 15 9 0 7 7 -5 20 -13 14 -21
17 -26 9 -5 -8 -8 -8 -13 0 -4 6 -2 11 5 11 8 0 8 4 -1 15 -26 31 1 13 44 -30
45 -44 65 -76 26 -40 -22 20 -28 8 -7 -14 10 -11 10 -13 0 -7 -19 11 -16 -1 7
-24 11 -11 20 -16 20 -12 0 11 41 9 60 -2 8 -5 -1 8 -20 29 -21 23 -28 36 -17
32 9 -4 17 -2 17 4 0 5 17 -2 38 -17 30 -22 32 -22 11 -3 -15 13 -42 42 -60
64 l-34 40 38 -32 c38 -33 53 -41 42 -23 -3 5 -1 10 6 10 7 0 5 8 -6 20 -20
22 -8 28 15 8 8 -7 7 -3 -3 8 -10 12 -19 31 -22 42 -2 12 -20 37 -39 57 -37
36 -50 38 -18 2 14 -17 15 -20 1 -15 -9 4 -22 2 -30 -3 -11 -7 -6 -16 23 -44
21 -19 34 -35 30 -35 -14 0 -76 69 -69 77 4 3 -5 19 -20 35 -17 18 -22 28 -13
28 11 0 11 3 2 12 -15 15 -16 32 -2 23 6 -3 10 -1 10 5 0 6 4 9 10 5 5 -3 6
-13 3 -21 -3 -9 0 -20 8 -25 10 -6 10 -9 2 -9 -21 0 -15 -18 10 -31 20 -11 21
-11 9 4 -10 11 -11 21 -3 35 8 16 4 26 -25 58 -19 22 -30 29 -25 17 18 -37
-17 -39 -53 -3 -26 26 -29 32 -16 41 12 8 10 9 -7 4 -16 -4 -25 0 -34 17 -11
21 -11 22 4 9 13 -10 17 -10 17 -1 0 7 7 10 16 6 10 -4 13 -2 8 6 -5 8 -1 9
12 4 15 -6 14 -2 -6 21 -14 15 -6 10 18 -11 31 -29 39 -42 29 -49 -8 -6 -7 -7
4 -4 10 3 28 -6 45 -25 16 -17 22 -27 14 -23 -10 5 -8 1 4 -13 20 -23 32 -30
21 -12 -9 14 8 12 25 -2 8 -7 4 0 -10 17 -14 16 -29 34 -35 38 -6 5 -3 7 8 3
9 -3 17 -1 17 5 0 6 5 7 12 3 7 -4 8 -3 4 4 -4 6 -14 8 -22 5 -13 -5 -15 -1
-9 17 6 20 5 21 -8 9 -8 -8 -12 -18 -9 -24 3 -6 1 -6 -4 -2 -5 5 -9 13 -9 18
0 5 -4 9 -10 10 -19 1 -44 31 -38 46 5 12 1 14 -18 8 -22 -7 -22 -7 -6 9 23
23 21 29 -4 15 -12 -6 -19 -7 -15 -1 3 5 -4 18 -17 28 -12 10 -16 12 -9 4 14
-17 16 -34 2 -25 -13 8 -13 -38 1 -52 7 -7 6 -12 -4 -16 -9 -3 -14 0 -13 10 0
9 -5 18 -13 21 -8 2 -11 0 -8 -5 7 -11 -35 -9 -52 2 -6 3 -11 2 -11 -3 0 -12
-25 -23 -61 -28 -19 -2 -34 6 -60 33 -25 26 -29 34 -14 29 16 -6 18 -5 8 5
-16 16 -17 33 -1 23 7 -4 8 -3 4 4 -4 6 -14 9 -24 6 -14 -5 -14 -4 -2 4 12 9
12 14 -5 32 -13 15 -21 17 -26 8 -6 -9 -12 -8 -26 2 -15 12 -16 12 -5 0 15
-18 16 -34 0 -24 -8 5 -9 2 -4 -11 6 -18 6 -18 -15 1 l-22 19 12 -23 c12 -23
12 -23 -11 -11 -23 12 -23 12 2 -17 16 -18 18 -23 6 -14 -18 14 -19 13 -13 -2
7 -21 -3 -23 -23 -6 -8 7 -7 4 3 -8 28 -34 19 -40 -15 -8 -18 16 -24 19 -14 7
10 -12 15 -27 10 -34 -4 -7 -3 -10 4 -5 6 3 14 1 18 -5 5 -8 3 -9 -6 -4 -10 6
-12 4 -6 -11 6 -16 4 -16 -17 4 -35 33 -45 27 -12 -8 40 -42 22 -38 -20 5 -35
34 -48 59 -20 35 23 -19 18 1 -7 28 -13 14 -16 21 -8 17 8 -5 21 -17 28 -27 7
-10 18 -18 25 -18 6 0 -13 25 -43 55 -30 30 -48 55 -40 55 9 0 6 9 -11 28 -13
15 -17 21 -9 14 27 -23 34 -12 9 15 -13 15 -16 21 -6 14 23 -18 33 -8 12 13
-9 9 -12 16 -7 16 5 0 15 -7 22 -15 18 -21 35 -19 19 3 -13 15 -12 16 3 4 9
-8 15 -19 12 -27 -3 -7 -1 -16 5 -20 7 -3 8 0 5 9 -3 9 -1 16 6 16 6 0 8 5 4
12 -4 7 -3 8 5 4 7 -5 23 -9 37 -11 19 -2 22 0 13 11 -14 17 3 18 20 2 10 -11
11 -9 5 7 -6 16 -5 18 7 9 18 -13 61 -16 54 -3 -4 5 -1 9 5 9 6 0 8 5 4 11 -4
8 -9 7 -15 -2 -5 -8 -9 -9 -9 -4 0 6 -5 3 -10 -5 -8 -13 -11 -12 -24 5 -10 13
-15 15 -16 7 0 -8 -6 -12 -12 -9 -7 2 -19 -5 -26 -17 -12 -20 -13 -20 -6 3 5
19 3 23 -10 18 -8 -3 -18 -1 -22 5 -4 6 -3 8 3 5 13 -8 26 20 16 36 -3 7 4 3
17 -8 l23 -20 -12 23 c-7 12 -8 22 -2 22 5 0 12 -6 14 -12 3 -7 6 -4 6 6 1 18
3 18 28 -5 15 -13 21 -16 14 -6 -21 26 -5 20 34 -14 31 -27 50 -59 26 -45 -5
3 -8 -6 -8 -19 0 -17 10 -33 28 -46 25 -18 28 -18 22 -3 -4 12 -3 15 5 10 8
-5 10 -2 6 9 -5 12 -2 14 12 8 18 -7 18 -6 2 11 -23 22 -23 27 0 19 15 -6 15
-4 -2 16 -20 22 -20 22 0 15 15 -6 17 -4 7 6 -8 9 -9 20 -2 37 5 14 6 29 3 35
-5 7 -2 8 6 3 10 -6 12 -4 7 8 -3 10 -2 17 4 17 6 0 7 5 4 10 -3 6 -2 10 3 10
26 0 -7 73 -34 75 -11 0 -26 5 -34 10 -13 8 -13 6 -1 -8 7 -9 17 -14 22 -11 5
3 19 -4 31 -15 27 -25 13 -28 -15 -3 -20 16 -20 16 -13 -3 6 -18 5 -17 -17 3
-15 14 -26 19 -29 12 -2 -7 -12 -4 -27 9 -26 23 -36 27 -26 11 10 -16 -6 -12
-29 7 -15 13 -14 10 3 -10 15 -16 27 -23 31 -17 4 7 11 5 20 -5 7 -8 10 -18 6
-22 -3 -3 -6 -1 -6 6 0 8 -6 11 -17 7 -11 -5 -30 6 -57 31 -23 21 -35 31 -28
24 14 -18 16 -35 2 -26 -5 3 -10 1 -10 -6 0 -7 -10 -5 -27 6 l-28 18 25 -27
c13 -15 26 -22 28 -17 2 6 8 9 13 5 5 -3 9 0 9 6 0 8 6 8 20 0 11 -6 20 -16
20 -22 0 -6 -6 -5 -17 3 -10 9 -14 9 -10 2 12 -19 -51 -7 -76 14 -11 10 -17
12 -13 6 16 -28 -13 -10 -52 31 -32 34 -38 45 -26 50 8 3 13 2 10 -3 -3 -5 2
-15 11 -22 15 -12 16 -12 9 6 -6 17 -4 16 21 -5 16 -15 21 -17 13 -6 -12 15
-12 20 -2 24 10 3 10 7 0 20 -12 15 -11 15 4 4 9 -8 15 -19 12 -27 -3 -7 0
-16 7 -21 9 -5 10 -2 6 9 -8 20 3 22 23 5 8 -7 4 -1 -9 15 -29 33 -17 36 18 5
22 -20 23 -20 8 -2 -19 23 -24 45 -6 27 9 -9 15 -8 24 0 11 10 6 20 -23 51
l-37 39 35 -23 35 -23 -35 38 c-25 27 -29 34 -13 26 12 -6 31 -23 42 -37 12
-15 21 -23 21 -18 0 4 -15 24 -32 43 -23 23 -27 32 -14 27 15 -5 14 0 -9 31
l-28 38 38 -35 c23 -21 36 -28 32 -17 -8 21 9 23 21 1 8 -15 10 -14 16 1 3 10
4 20 1 23 -3 3 -5 -1 -5 -8 0 -9 -9 -5 -26 11 -22 21 -24 21 -18 4 5 -13 -7
-7 -35 20 -22 21 -41 41 -41 44 0 3 5 0 12 -7 16 -16 31 -15 22 1 -4 6 2 3 14
-7 26 -22 30 -35 5 -15 -14 12 -16 12 -11 -1 2 -8 17 -15 31 -15 l27 -1 -22
23 c-30 32 -11 29 26 -4 17 -15 10 -5 -16 22 -45 48 -66 82 -33 55 8 -7 15 -9
15 -5 0 10 -92 90 -101 88 -5 -2 -6 4 -3 12 4 8 1 15 -5 15 -6 0 -11 -5 -11
-11z m-239 -46 c12 -15 12 -16 -3 -10 -23 8 -23 -1 -1 -27 12 -14 9 -13 -10 4
-16 13 -23 26 -18 28 6 2 9 8 5 13 -10 16 13 10 27 -8z m-31 -38 c11 -13 10
-14 -4 -9 -9 3 -16 10 -16 15 0 13 6 11 20 -6z m97 -29 c27 -25 51 -40 54 -34
4 7 9 7 13 0 3 -5 -2 -13 -11 -16 -11 -4 -28 4 -50 26 -18 17 -33 27 -33 21 0
-6 12 -21 28 -34 19 -15 23 -23 14 -26 -10 -4 -2 -18 25 -45 25 -26 31 -37 18
-32 -18 7 -19 6 -5 -12 11 -15 11 -16 0 -6 -19 16 -31 15 -24 -2 3 -8 0 -17
-6 -21 -7 -5 -31 11 -59 39 -25 26 -37 44 -27 40 16 -6 18 -4 13 10 -4 9 10 1
30 -19 20 -19 39 -33 42 -30 3 3 -9 19 -27 36 -18 16 -32 33 -32 37 0 3 18
-12 40 -33 22 -21 40 -35 40 -29 0 20 -78 87 -92 79 -10 -6 -11 -5 -1 5 10 11
16 10 33 -5 11 -10 20 -14 20 -8 0 5 -9 18 -20 28 -11 10 -19 23 -17 29 3 6
-2 19 -11 29 -28 32 -4 17 45 -27z m141 22 c7 -9 6 -17 -3 -25 -10 -10 -16 -9
-26 3 -10 12 -9 13 7 7 17 -6 17 -5 5 10 -7 9 -9 17 -3 17 5 0 14 -6 20 -12z
m63 -35 c13 -17 13 -17 -6 -3 -11 8 -22 16 -24 17 -2 2 0 3 6 3 6 0 17 -8 24
-17z m-340 -50 c13 -16 12 -17 -3 -4 -10 7 -18 15 -18 17 0 8 8 3 21 -13z
m270 -10 c13 -16 12 -17 -3 -4 -10 7 -18 15 -18 17 0 8 8 3 21 -13z m-81 -7
c6 -8 17 -13 25 -10 7 3 16 0 21 -7 5 -9 2 -10 -9 -6 -20 7 -22 -4 -5 -21 7
-7 10 -12 7 -12 -3 0 -20 16 -39 35 -19 19 -29 35 -23 35 6 0 16 -6 23 -14z
m71 -13 c13 -16 12 -17 -3 -4 -10 7 -18 15 -18 17 0 8 8 3 21 -13z m114 -13
c3 -6 -1 -7 -9 -4 -18 7 -21 14 -7 14 6 0 13 -4 16 -10z m-265 -65 c30 -30 52
-55 49 -55 -2 0 -29 25 -59 55 -30 30 -52 55 -49 55 2 0 29 -25 59 -55z m-49
18 c13 -16 12 -17 -3 -4 -10 7 -18 15 -18 17 0 8 8 3 21 -13z m-20 -44 c8 -15
8 -19 0 -15 -20 13 -11 -7 17 -38 l27 -31 -31 28 c-21 19 -31 37 -30 53 1 29
2 29 17 3z m382 -55 c13 -22 -11 -16 -25 6 -7 11 -17 20 -22 20 -5 0 -1 -9 9
-20 21 -23 11 -27 -11 -5 -9 8 -12 20 -9 25 4 6 1 19 -7 28 -7 9 3 4 22 -12
19 -16 39 -35 43 -42z m-322 29 l24 -28 -30 25 c-16 14 -32 26 -34 28 -2 1 0
2 6 2 5 0 20 -12 34 -27z m-16 -22 c-6 -5 -25 10 -25 20 0 5 6 4 14 -3 8 -7
12 -15 11 -17z m-60 -1 c10 -11 16 -20 13 -20 -3 0 -13 9 -23 20 -10 11 -16
20 -13 20 3 0 13 -9 23 -20z m223 -92 c2 -5 8 -8 13 -8 6 0 7 5 4 10 -12 20 2
9 36 -27 18 -20 26 -31 17 -24 -15 11 -18 11 -18 0 0 -7 -13 -1 -29 15 -18 17
-34 25 -42 21 -8 -6 -10 -4 -4 4 5 8 -12 33 -46 69 l-54 57 60 -55 c33 -30 61
-58 63 -62z m-8 108 c0 -2 -7 -7 -16 -10 -8 -3 -12 -2 -9 4 6 10 25 14 25 6z
m-235 -26 c3 -5 1 -10 -5 -10 -7 0 -10 -7 -6 -17 5 -16 4 -15 -9 1 -14 19 -12
36 5 36 5 0 12 -4 15 -10z m115 -20 c0 -5 -2 -10 -4 -10 -3 0 -8 5 -11 10 -3
6 -1 10 4 10 6 0 11 -4 11 -10z m-80 -15 c19 -22 8 -25 -12 -3 -10 10 -14 18
-9 18 5 0 14 -7 21 -15z m139 -19 c-3 -3 -11 5 -18 17 -13 21 -12 21 5 5 10
-10 16 -20 13 -22z m-45 -6 c4 0 4 5 1 10 -10 16 0 12 25 -10 13 -11 18 -20
12 -20 -6 0 -14 5 -18 11 -5 8 -8 8 -13 0 -5 -7 -16 -1 -32 16 -17 20 -18 23
-3 10 11 -9 24 -17 28 -17z m-216 -32 c-7 -4 -8 -8 -3 -8 6 0 3 -5 -5 -10 -12
-8 -10 -14 15 -40 16 -16 33 -30 39 -30 5 0 0 11 -13 23 -21 23 -20 64 1 51 6
-4 5 -10 -3 -15 -11 -7 -8 -15 14 -34 16 -14 26 -29 22 -34 -3 -6 8 -24 25
-41 27 -28 35 -40 27 -40 -2 0 -43 41 -93 92 -49 50 -82 89 -73 86 9 -4 22 -2
30 3 12 8 11 12 -3 23 -10 7 -18 17 -18 21 0 5 11 -2 25 -15 19 -18 22 -26 13
-32z m202 7 c19 -19 32 -35 29 -35 -3 0 -20 16 -39 35 -19 19 -32 35 -29 35 3
0 20 -16 39 -35z m-96 -4 c-2 -3 -12 3 -22 13 -16 17 -16 18 5 5 12 -7 20 -15
17 -18z m81 -13 c22 -23 30 -34 17 -24 -12 11 -25 16 -29 12 -4 -4 -1 -11 7
-16 14 -8 18 -23 22 -70 0 -8 6 -21 12 -29 8 -11 8 -13 -1 -7 -7 4 -13 2 -13
-3 0 -6 4 -11 9 -11 5 0 11 -6 14 -13 3 -9 -4 -13 -22 -12 -21 0 -26 5 -24 23
2 12 -1 22 -5 22 -4 0 -13 10 -21 21 -13 21 -12 21 21 -1 30 -21 29 -19 -12
26 -25 27 -31 36 -14 21 37 -33 56 -36 25 -3 -18 19 -21 28 -13 43 14 26 -3
56 -18 33 -5 -8 -10 -12 -10 -8 0 7 11 38 14 38 1 0 20 -19 41 -42z m-85 -8
c0 -5 -2 -10 -4 -10 -3 0 -8 5 -11 10 -3 6 -1 10 4 10 6 0 11 -4 11 -10z
m-100 -66 c36 -36 56 -62 45 -58 -15 5 -11 -3 15 -32 32 -36 32 -37 4 -11 -27
25 -45 33 -76 36 -5 1 -8 6 -8 12 0 8 5 8 15 -1 32 -27 13 6 -21 35 -21 18
-36 42 -38 58 -2 15 -3 27 -2 27 1 0 31 -29 66 -66z m41 -131 c-12 -20 -14
-14 -5 12 4 9 9 14 11 11 3 -2 0 -13 -6 -23z m79 17 c0 -5 -2 -10 -4 -10 -3 0
-8 5 -11 10 -3 6 -1 10 4 10 6 0 11 -4 11 -10z m-90 -45 c13 -14 21 -25 18
-25 -2 0 -15 11 -28 25 -13 14 -21 25 -18 25 2 0 15 -11 28 -25z m85 -15 c3
-6 -1 -7 -9 -4 -18 7 -21 14 -7 14 6 0 13 -4 16 -10z m91 -62 l29 -33 -32 29
c-31 28 -38 36 -30 36 2 0 16 -15 33 -32z m119 -58 c10 -11 16 -20 13 -20 -3
0 -13 9 -23 20 -10 11 -16 20 -13 20 3 0 13 -9 23 -20z m377 -109 c28 -33 5
-24 -28 10 -20 22 -23 28 -9 21 11 -6 28 -20 37 -31z m-238 -29 c17 -20 24
-32 17 -25 -8 6 -19 9 -25 7 -7 -3 -21 6 -32 18 l-19 23 21 -17 c31 -27 41
-22 14 7 -13 14 -19 25 -14 24 5 0 22 -17 38 -37z m281 18 c3 -5 1 -10 -4 -10
-6 0 -11 5 -11 10 0 6 2 10 4 10 3 0 8 -4 11 -10z m162 -64 c32 -32 52 -59 48
-66 -4 -6 1 -21 11 -33 10 -12 2 -6 -19 12 -43 41 -50 31 -9 -13 l27 -31 -35
30 c-19 17 -37 32 -40 34 -3 2 1 6 8 8 10 4 6 14 -14 34 -28 30 -57 41 -34 14
9 -11 9 -15 1 -15 -7 0 -9 -4 -6 -10 3 -5 1 -10 -5 -10 -6 0 -1 -15 11 -32
l23 -33 -32 30 c-17 17 -26 31 -21 33 11 4 -8 42 -21 42 -5 0 -7 -7 -3 -16 5
-14 3 -13 -15 2 -26 22 -27 25 -5 17 11 -4 14 -3 9 5 -4 7 -3 12 3 12 5 0 16
7 25 15 9 9 17 11 21 5 3 -5 1 -10 -5 -10 -6 0 -8 -5 -4 -11 4 -8 9 -7 15 2 6
10 13 7 29 -14 12 -15 27 -27 33 -27 6 0 -7 18 -28 40 -21 22 -35 40 -31 40 5
0 33 -24 63 -54z m-394 -16 c4 0 12 0 17 0 6 0 10 -5 10 -11 0 -5 -4 -7 -10
-4 -5 3 -10 1 -10 -4 0 -6 5 -11 10 -11 6 0 10 -5 10 -12 0 -6 -9 -3 -20 7
-12 11 -20 13 -20 6 0 -7 -4 -9 -10 -6 -16 10 -12 -6 8 -29 13 -16 14 -18 1
-8 -9 7 -23 10 -31 7 -9 -4 -18 1 -22 11 -6 15 -4 15 10 3 16 -13 16 -12 5 9
-9 17 -9 22 0 22 7 0 4 9 -7 23 l-19 22 26 -22 c35 -32 48 -29 18 3 l-24 27
25 -16 c14 -9 28 -16 33 -17z m-74 -14 c-3 -3 -11 5 -18 17 -13 21 -12 21 5 5
10 -10 16 -20 13 -22z m367 -38 l29 -33 -32 29 c-31 28 -38 36 -30 36 2 0 16
-15 33 -32z m-185 -5 c13 -16 12 -17 -3 -4 -10 7 -18 15 -18 17 0 8 8 3 21
-13z m-81 -15 c0 -6 -6 -5 -15 2 -8 7 -15 14 -15 16 0 2 7 1 15 -2 8 -4 15
-11 15 -16z m-66 -37 c-2 -2 -11 2 -21 10 -15 12 -16 12 -9 -5 7 -19 6 -19
-13 -2 -15 14 -17 21 -8 30 9 10 16 8 33 -8 12 -12 20 -23 18 -25z m11 29 c3
-5 1 -10 -4 -10 -6 0 -11 5 -11 10 0 6 2 10 4 10 3 0 8 -4 11 -10z m-75 -41
c0 7 5 9 12 5 9 -6 9 -9 0 -12 -10 -3 -10 -7 -1 -18 21 -26 3 -14 -22 13 -13
15 -16 21 -6 14 12 -10 17 -10 17 -2z m680 -47 c0 -1 -9 2 -20 8 -11 6 -20 15
-20 20 0 6 9 2 20 -7 11 -10 20 -19 20 -21z m-350 -20 c-8 -3 -8 -8 1 -18 16
-20 1 -18 -19 3 -9 9 -17 27 -17 40 l-1 23 24 -22 c13 -13 18 -24 12 -26z
m-340 28 c0 -5 -2 -10 -4 -10 -3 0 -8 5 -11 10 -3 6 -1 10 4 10 6 0 11 -4 11
-10z m711 -67 c13 -16 12 -17 -3 -4 -17 13 -22 21 -14 21 2 0 10 -8 17 -17z
m-511 -3 c0 -5 -2 -10 -4 -10 -3 0 -8 5 -11 10 -3 6 -1 10 4 10 6 0 11 -4 11
-10z m475 -20 c10 -11 16 -20 13 -20 -3 0 -13 9 -23 20 -10 11 -16 20 -13 20
3 0 13 -9 23 -20z m-520 -60 c3 -6 -1 -7 -9 -4 -18 7 -21 14 -7 14 6 0 13 -4
16 -10z m520 -1 c4 -6 4 -13 0 -17 -3 -3 -10 0 -15 8 -7 11 -10 12 -10 2 0 -7
-5 -10 -11 -6 -8 4 -7 9 2 15 19 12 27 11 34 -2z m-564 -26 c13 -16 12 -17 -3
-4 -10 7 -18 15 -18 17 0 8 8 3 21 -13z m99 -28 c13 -14 18 -25 11 -25 -8 0
-5 -9 8 -26 11 -14 17 -32 14 -40 -4 -12 -13 -8 -40 18 -18 18 -29 34 -23 36
7 3 4 12 -7 26 -18 21 -18 21 3 4 31 -27 41 -22 14 7 -13 14 -19 25 -13 25 5
0 20 -11 33 -25z m107 -37 c34 -39 38 -55 5 -24 -17 15 -35 25 -41 22 -7 -4
-8 -1 -5 8 8 22 17 20 41 -6z m-147 -23 c19 -19 32 -35 29 -35 -3 0 -20 16
-39 35 -19 19 -32 35 -29 35 3 0 20 -16 39 -35z m341 -12 c15 -19 23 -24 26
-15 4 10 9 9 24 -4 10 -9 19 -21 19 -26 0 -5 -7 -2 -16 7 -11 11 -19 13 -24 6
-4 -7 -19 3 -40 24 -19 19 -29 35 -23 35 6 0 21 -12 34 -27z m-360 0 c13 -16
12 -17 -3 -4 -10 7 -18 15 -18 17 0 8 8 3 21 -13z m149 -55 c0 -12 -6 -9 -26
13 -19 22 -19 22 4 8 12 -8 22 -17 22 -21z m120 17 c20 -24 6 -28 -15 -5 -10
11 -13 20 -8 20 6 0 16 -7 23 -15z m-219 -12 c13 -16 12 -17 -3 -4 -10 7 -18
15 -18 17 0 8 8 3 21 -13z m359 -33 c0 -5 -2 -10 -4 -10 -3 0 -8 5 -11 10 -3
6 -1 10 4 10 6 0 11 -4 11 -10z m-35 -30 c3 -5 1 -10 -4 -10 -6 0 -11 5 -11
10 0 6 2 10 4 10 3 0 8 -4 11 -10z m-134 -92 c15 -28 8 -22 -51 39 l-55 56 48
-38 c26 -21 52 -47 58 -57z m38 28 c19 -20 30 -36 25 -36 -5 0 -30 21 -54 46
-25 26 -36 42 -25 36 11 -6 36 -26 54 -46z m64 34 c19 -22 22 -35 7 -25 -21
13 -8 -7 22 -34 18 -16 30 -32 26 -36 -4 -4 -30 17 -58 46 -37 38 -47 55 -38
61 19 11 22 10 41 -12z m-252 -47 c13 -16 12 -17 -3 -4 -10 7 -18 15 -18 17 0
8 8 3 21 -13z m-66 -31 c-3 -3 -11 0 -18 7 -9 10 -8 11 6 5 10 -3 15 -9 12
-12z m66 1 c13 -16 12 -17 -3 -4 -10 7 -18 15 -18 17 0 8 8 3 21 -13z m-16
-52 c-6 -5 -25 10 -25 20 0 5 6 4 14 -3 8 -7 12 -15 11 -17z"/>
<path d="M540 1813 c0 -9 37 -45 59 -58 21 -12 -20 41 -41 54 -10 6 -18 8 -18
4z"/>
<path d="M720 1571 c0 -5 7 -12 16 -15 14 -5 15 -4 4 9 -14 17 -20 19 -20 6z"/>
<path d="M530 1532 c0 -12 19 -26 26 -19 2 2 -2 10 -11 17 -9 8 -15 8 -15 2z"/>
<path d="M330 1514 c0 -5 16 -25 35 -44 45 -44 45 -30 0 18 -19 20 -35 32 -35
26z"/>
<path d="M1184 1011 c21 -23 26 -26 26 -11 0 5 -10 15 -22 21 -23 12 -23 12
-4 -10z"/>
<path d="M1280 983 c0 -13 29 -38 35 -31 3 3 -4 13 -15 23 -11 10 -20 13 -20
8z"/>
<path d="M960 596 c0 -6 38 -46 44 -46 10 0 -17 39 -31 44 -7 3 -13 4 -13 2z"/>
<path d="M1230 422 c0 -12 19 -26 26 -19 2 2 -2 10 -11 17 -9 8 -15 8 -15 2z"/>
<path d="M1505 2029 c-4 -6 -5 -12 -2 -15 2 -3 7 2 10 11 7 17 1 20 -8 4z"/>
<path d="M596 2017 c4 -10 1 -17 -6 -17 -9 0 -8 -6 4 -19 12 -13 13 -20 6 -23
-8 -2 -6 -9 6 -18 16 -13 17 -13 11 2 -3 10 0 24 8 31 12 13 10 18 -11 38 -19
17 -23 19 -18 6z"/>
<path d="M2065 2000 c10 -11 20 -20 23 -20 3 0 -3 9 -13 20 -10 11 -20 20 -23
20 -3 0 3 -9 13 -20z"/>
<path d="M2087 2009 c7 -7 15 -10 18 -7 3 3 -2 9 -12 12 -14 6 -15 5 -6 -5z"/>
<path d="M1567 1979 c7 -7 15 -10 18 -7 3 3 -2 9 -12 12 -14 6 -15 5 -6 -5z"/>
<path d="M2100 1973 c0 -5 9 -18 20 -28 11 -10 20 -16 20 -13 0 3 -9 15 -20
28 -11 13 -20 19 -20 13z"/>
<path d="M2140 1960 c13 -11 25 -20 28 -20 3 0 -3 9 -13 20 -10 11 -23 20 -28
20 -6 0 0 -9 13 -20z"/>
<path d="M1620 1960 c0 -5 -8 -6 -17 -3 -10 4 -2 -7 17 -24 44 -39 34 -53 -11
-17 -27 22 -25 18 11 -21 29 -31 38 -45 25 -41 -16 6 -15 2 8 -21 38 -40 34
-53 -5 -17 l-33 29 28 -31 c25 -28 27 -35 17 -54 -7 -13 -8 -20 -2 -16 6 3 13
2 17 -4 3 -5 1 -10 -6 -10 -7 0 -10 -3 -6 -6 3 -3 13 -2 22 3 15 9 15 11 1 26
-29 28 25 17 58 -12 l29 -26 -23 33 c-24 32 -31 36 -60 33 -12 -2 -13 0 -1 7
11 8 9 14 -8 31 -11 11 -21 24 -21 28 0 4 25 -17 56 -47 31 -30 51 -45 45 -32
-9 17 -9 22 1 22 6 0 -6 18 -27 40 -42 43 -39 55 4 18 14 -13 8 -4 -14 20 -21
23 -41 42 -44 42 -3 0 0 -5 7 -12 7 -7 12 -17 12 -22 0 -6 -18 7 -39 28 -22
22 -37 45 -34 52 3 8 2 14 -1 14 -3 0 -6 -4 -6 -10z m85 -115 c26 -25 46 -47
44 -50 -4 -4 -99 83 -99 91 0 9 8 3 55 -41z"/>
<path d="M795 1940 c3 -5 11 -10 16 -10 6 0 7 5 4 10 -3 6 -11 10 -16 10 -6 0
-7 -4 -4 -10z"/>
<path d="M1980 1925 c11 -13 10 -14 -6 -8 -17 6 -18 5 -4 -13 8 -10 19 -22 23
-25 5 -3 9 -12 10 -20 3 -18 37 -67 37 -52 0 6 -7 16 -15 23 -9 7 -13 15 -10
18 3 3 17 -5 32 -19 l28 -24 -20 25 c-11 14 -26 29 -32 33 -7 4 -13 13 -13 18
0 6 5 7 12 3 7 -5 8 -3 3 7 -16 25 -39 49 -48 49 -5 0 -4 -7 3 -15z m25 -25
c3 -5 1 -10 -4 -10 -6 0 -11 5 -11 10 0 6 2 10 4 10 3 0 8 -4 11 -10z"/>
<path d="M380 1911 c0 -6 4 -13 10 -16 6 -3 7 1 4 9 -7 18 -14 21 -14 7z"/>
<path d="M890 1916 c0 -2 8 -10 18 -17 15 -13 16 -12 3 4 -13 16 -21 21 -21
13z"/>
<path d="M1730 1891 c0 -6 4 -13 10 -16 6 -3 7 1 4 9 -7 18 -14 21 -14 7z"/>
<path d="M357 1870 c12 -14 32 -26 43 -27 24 -2 25 3 5 23 -13 14 -15 13 -15
-2 0 -15 -4 -14 -27 7 l-28 24 22 -25z"/>
<path d="M1940 1835 c13 -14 27 -25 32 -25 5 0 -3 11 -18 25 -15 14 -29 25
-32 25 -3 0 5 -11 18 -25z"/>
<path d="M2250 1850 c0 -6 -3 -9 -7 -7 -5 3 -14 -1 -21 -9 -15 -16 -8 -18 17
-5 13 7 17 5 17 -10 0 -13 -5 -18 -15 -14 -9 4 -5 -5 8 -19 14 -15 27 -26 31
-26 12 0 7 34 -6 48 -7 7 -11 19 -8 26 3 8 1 17 -5 21 -6 3 -11 1 -11 -5z m25
-60 c3 -5 1 -10 -4 -10 -6 0 -11 5 -11 10 0 6 2 10 4 10 3 0 8 -4 11 -10z"/>
<path d="M358 1840 c17 -20 15 -30 -5 -23 -16 6 -17 5 -3 -12 14 -17 13 -18
-4 -12 -16 6 -17 5 -6 -8 13 -16 31 -20 29 -7 -3 19 2 33 11 27 5 -3 7 -12 3
-20 -3 -8 0 -15 7 -15 6 0 9 4 6 9 -4 5 -1 11 4 13 6 2 -4 17 -22 33 -18 16
-27 23 -20 15z"/>
<path d="M1820 1826 c0 -2 7 -9 15 -16 9 -7 15 -8 15 -2 0 5 -7 12 -15 16 -8
3 -15 4 -15 2z"/>
<path d="M1860 1791 c0 -11 29 -35 35 -29 2 2 -4 12 -15 21 -11 9 -20 13 -20
8z"/>
<path d="M2228 1779 c25 -29 21 -61 -6 -52 -15 4 -15 3 -2 -7 12 -9 12 -13 2
-17 -10 -4 -9 -10 5 -26 17 -20 17 -20 -1 -13 -19 6 -19 6 -3 -12 22 -24 22
-38 0 -21 -10 8 -7 -1 8 -21 28 -37 29 -71 3 -49 -10 8 -11 14 -4 19 6 4 -1
16 -17 31 -16 13 -22 17 -15 9 17 -20 15 -31 -5 -23 -11 4 -14 3 -9 -6 5 -7
15 -10 23 -7 8 3 11 1 8 -5 -4 -5 -1 -16 5 -24 8 -9 8 -15 2 -15 -6 0 -22 13
-35 30 -16 18 -27 25 -30 17 -3 -8 -14 -4 -33 13 -16 13 -10 4 14 -21 40 -43
58 -75 27 -49 -12 10 -15 10 -15 0 0 -10 -3 -10 -15 0 -8 6 -19 9 -24 6 -12
-8 -52 34 -45 46 8 12 -24 40 -37 32 -8 -4 -9 -3 -5 5 5 7 -3 22 -19 37 -15
14 -24 28 -20 32 4 4 14 -2 24 -13 24 -28 88 -84 73 -63 -9 11 -10 17 -2 20 7
2 1 12 -12 23 -13 11 -17 13 -10 5 20 -23 14 -35 -8 -15 -11 10 -20 26 -20 35
0 10 -8 24 -17 31 -15 11 -16 11 -5 -1 17 -19 15 -35 -3 -20 -17 14 -39 4 -31
-16 8 -21 -6 -17 -30 9 -14 14 -21 32 -19 50 2 15 -1 25 -5 22 -5 -3 -6 -13
-3 -22 5 -13 2 -15 -13 -9 -10 4 6 -18 36 -48 33 -34 57 -51 61 -45 5 8 8 8
13 0 4 -6 2 -11 -5 -11 -8 0 -8 -4 1 -15 9 -11 15 -12 20 -5 4 7 12 5 21 -6
12 -16 12 -17 -3 -11 -9 3 -18 1 -21 -6 -2 -7 -9 -2 -16 11 -14 25 -34 30 -24
5 4 -10 -6 -5 -25 12 -36 32 -40 40 -15 31 13 -5 11 0 -6 18 -29 31 -32 32
-24 9 5 -14 0 -12 -20 6 -15 14 -27 22 -27 20 0 -9 125 -139 133 -139 5 0 5 5
1 11 -5 8 -1 8 14 0 15 -8 21 -8 24 1 3 8 14 2 28 -15 16 -18 30 -25 42 -21
11 3 20 -1 24 -10 3 -9 10 -16 16 -16 5 0 6 5 3 10 -3 6 -2 10 4 10 17 0 24
-22 10 -32 -11 -8 -10 -9 3 -4 10 3 20 1 23 -4 3 -6 16 -15 28 -21 17 -9 15
-4 -10 22 -26 28 -29 36 -18 46 10 10 16 9 27 -4 11 -15 11 -16 -4 -10 -24 9
-23 -2 4 -24 23 -21 39 -26 20 -7 -18 18 -15 28 6 21 16 -7 16 -6 0 11 -22 21
-22 22 -4 29 11 4 13 1 10 -11 -5 -15 -4 -15 6 1 6 9 8 22 5 27 -3 6 -1 10 6
10 7 0 2 11 -11 25 -23 25 -16 37 8 13 7 -7 12 -8 12 -2 0 5 -9 15 -20 22 -11
7 -20 17 -20 24 0 6 8 4 19 -6 17 -16 18 -15 16 8 -2 14 -6 30 -10 35 -3 6 -1
11 6 11 9 0 9 4 -1 15 -6 8 -9 18 -6 23 3 5 -9 22 -27 38 -27 25 -29 25 -9 3z
m32 -69 c0 -5 -2 -10 -4 -10 -3 0 -8 5 -11 10 -3 6 -1 10 4 10 6 0 11 -4 11
-10z m-5 -30 c10 -11 13 -20 7 -20 -6 0 -16 9 -22 20 -6 11 -9 20 -7 20 2 0
12 -9 22 -20z m-255 -30 c0 -5 -2 -10 -4 -10 -3 0 -8 5 -11 10 -3 6 -1 10 4
10 6 0 11 -4 11 -10z m185 -90 c10 -11 13 -20 7 -20 -6 0 -16 9 -22 20 -6 11
-9 20 -7 20 2 0 12 -9 22 -20z"/>
<path d="M2050 1770 c-9 -6 -10 -10 -3 -10 6 0 15 5 18 10 8 12 4 12 -15 0z"/>
<path d="M2215 1760 c10 -11 20 -20 23 -20 3 0 -3 9 -13 20 -10 11 -20 20 -23
20 -3 0 3 -9 13 -20z"/>
<path d="M890 1761 c0 -6 4 -13 10 -16 6 -3 7 1 4 9 -7 18 -14 21 -14 7z"/>
<path d="M2086 1757 c3 -10 9 -15 12 -12 3 3 0 11 -7 18 -10 9 -11 8 -5 -6z"/>
<path d="M1700 1756 c0 -7 41 -48 65 -66 11 -8 4 4 -15 27 -31 38 -50 52 -50
39z"/>
<path d="M2120 1756 c0 -2 8 -10 18 -17 15 -13 16 -12 3 4 -13 16 -21 21 -21
13z"/>
<path d="M2015 1730 c3 -5 8 -10 11 -10 2 0 4 5 4 10 0 6 -5 10 -11 10 -5 0
-7 -4 -4 -10z"/>
<path d="M1649 1706 c15 -16 27 -22 31 -16 4 7 11 5 20 -5 11 -13 10 -15 -6
-9 -13 5 -8 -5 16 -32 22 -24 26 -31 10 -19 -14 11 -27 22 -30 25 -3 3 -19 16
-35 30 l-30 25 28 -31 c40 -44 33 -54 -10 -13 -21 18 -28 22 -15 8 24 -28 29
-44 10 -33 -7 4 -4 -2 6 -14 21 -24 31 -29 20 -9 -5 8 -2 8 9 -2 18 -15 23
-26 7 -16 -16 10 -11 -11 6 -26 14 -11 14 -13 -1 -22 -10 -5 -22 -4 -33 4 -9
7 10 -16 43 -50 33 -35 49 -56 35 -48 -24 15 -25 15 -26 -8 -1 -14 2 -25 6
-25 4 0 15 -12 25 -26 9 -15 13 -24 7 -20 -15 9 -24 -24 -11 -40 22 -26 -5
-14 -41 18 -19 18 -12 9 15 -21 48 -52 46 -61 -4 -17 l-24 21 23 -32 c13 -18
28 -33 34 -33 5 0 6 -3 2 -7 -3 -4 -28 14 -54 39 -43 42 -48 45 -62 30 -13
-14 -12 -15 4 -9 24 10 68 -29 61 -53 -4 -12 13 -34 55 -71 33 -30 68 -65 77
-79 l16 -25 -28 25 c-15 14 -45 43 -66 65 -20 22 -40 37 -44 34 -3 -4 20 -32
52 -64 34 -33 45 -49 27 -37 -16 11 -39 32 -49 46 -23 30 -37 34 -28 9 3 -10
-18 5 -48 32 -30 28 -39 34 -21 15 46 -51 40 -62 -8 -15 -22 21 -40 34 -40 28
0 -6 7 -13 15 -17 21 -8 19 -27 -2 -19 -12 4 -8 -5 11 -25 43 -47 19 -39 -34
11 l-45 42 40 -42 c39 -43 40 -58 1 -26 -12 10 1 -6 29 -35 27 -29 51 -52 54
-52 3 0 -8 13 -24 30 -16 16 -26 32 -24 35 3 2 43 -34 89 -80 91 -92 101 -114
17 -38 l-52 47 47 -49 c38 -41 46 -56 43 -80 -3 -20 3 -38 18 -54 16 -18 10
-16 -23 9 l-45 34 38 -41 c25 -26 47 -40 63 -40 l25 -1 -28 32 c-25 27 -25 28
-2 8 34 -30 43 -28 22 6 l-17 27 24 -24 23 -23 13 23 c7 13 13 20 14 16 0 -4
6 -2 14 5 12 11 11 17 -10 39 -25 26 -27 43 -9 65 8 9 14 9 24 0 12 -9 13 -8
6 4 -4 8 -15 24 -24 35 l-16 20 25 -20 c14 -11 28 -24 31 -29 4 -5 12 -5 19
-1 6 4 21 -1 32 -12 l22 -18 -20 27 c-10 15 -22 28 -25 28 -4 0 -15 12 -24 28
l-18 27 21 -19 c15 -13 22 -15 22 -6 0 10 3 10 15 0 23 -19 18 0 -7 29 -13 14
-4 8 20 -14 47 -44 49 -47 25 -38 -16 6 -16 5 -4 -10 7 -9 10 -17 6 -17 -4 0
-15 10 -25 23 -10 12 -21 19 -24 16 -3 -3 10 -21 30 -40 19 -19 32 -27 29 -18
-4 10 0 23 9 30 13 12 9 20 -27 59 -23 24 -30 34 -15 21 16 -14 30 -22 33 -19
3 3 -1 11 -10 18 -8 7 -15 16 -15 21 0 4 12 -3 27 -17 27 -25 45 -26 24 -1 -9
12 -7 14 12 12 18 -2 23 2 22 20 0 23 -24 59 -33 50 -3 -2 1 -13 9 -22 7 -10
-3 -3 -22 15 -19 17 -39 32 -44 32 -5 0 4 -15 21 -32 16 -18 22 -27 14 -20
-20 17 -33 15 -26 -4 6 -15 4 -15 -11 -3 -15 12 -16 12 -10 -4 4 -11 3 -16 -4
-12 -5 4 -8 12 -6 18 2 7 0 21 -6 32 -10 20 -10 20 12 1 11 -11 21 -14 21 -8
0 14 -50 53 -60 47 -4 -3 -14 3 -21 13 -13 15 -12 16 4 3 24 -19 21 -2 -5 28
-13 14 -6 10 15 -8 20 -19 37 -30 37 -24 0 6 -15 24 -32 40 -18 16 -42 39 -52
52 -19 21 -19 21 -1 15 11 -4 16 -3 12 2 -3 5 3 10 13 10 11 0 16 -5 12 -15
-4 -10 -1 -13 11 -8 21 8 58 -29 50 -49 -4 -11 -8 -12 -20 -3 -9 9 -11 14 -3
19 7 5 6 11 -5 20 -12 10 -15 10 -15 0 0 -9 -7 -7 -20 5 -34 31 -22 1 14 -34
20 -19 39 -30 46 -26 7 4 24 -5 41 -21 16 -15 29 -22 29 -15 0 7 5 9 10 6 14
-9 12 8 -2 26 -7 7 6 -4 30 -26 23 -21 42 -41 42 -44 0 -2 -9 4 -20 14 -11 10
-23 15 -27 12 -3 -4 -4 -8 -2 -9 2 -2 17 -14 33 -28 16 -14 26 -20 22 -13 -8
14 13 63 27 63 6 0 0 12 -14 26 l-24 27 30 -19 30 -18 -24 26 c-13 15 -29 24
-37 21 -19 -7 -18 -12 8 -42 18 -20 15 -19 -10 4 -18 16 -28 31 -22 33 13 5
-27 52 -44 52 -6 0 0 -7 12 -16 25 -17 30 -39 6 -30 -8 3 -12 2 -9 -4 10 -16
-11 -12 -25 5 -6 8 -9 19 -5 25 3 6 -22 41 -57 78 -34 37 -49 55 -32 40 49
-45 52 -32 4 17 -24 25 -38 45 -31 45 6 0 9 5 6 10 -3 6 -2 10 4 10 6 0 15 -9
21 -20 13 -24 35 -27 26 -4 -5 14 -4 15 9 4 17 -14 21 -35 5 -25 -5 3 -10 1
-10 -6 0 -7 -11 -2 -25 11 -14 13 -25 19 -25 13 0 -17 38 -45 50 -38 7 4 33
-13 63 -41 28 -27 43 -39 33 -26 -39 46 -6 31 42 -20 28 -29 46 -55 41 -59 -5
-3 0 -14 12 -25 l22 -19 -13 24 c-11 21 -10 23 5 17 10 -3 -1 13 -23 36 -24
24 -37 45 -31 48 6 4 4 12 -6 20 -13 11 -15 10 -9 -4 10 -26 -11 -18 -34 14
-13 17 -18 30 -13 30 5 0 13 -5 16 -10 4 -6 11 -8 16 -4 6 3 20 -2 32 -13 l22
-18 -19 23 c-11 12 -26 21 -35 20 -8 -2 -16 4 -16 12 0 24 -47 78 -53 61 -3
-8 -28 10 -73 55 -38 38 -69 64 -69 58 0 -5 5 -15 12 -22 9 -9 9 -12 1 -12 -7
0 -15 5 -18 10 -4 6 -10 8 -14 5 -5 -2 -19 4 -31 15 -31 27 -38 25 -14 -2 35
-40 50 -62 37 -54 -18 10 -16 -4 5 -28 l17 -21 -23 19 c-12 11 -21 25 -18 32
3 7 -3 18 -11 26 -15 11 -16 11 -9 -7 5 -13 -7 -6 -33 20 -23 21 -41 41 -41
44 0 5 42 -30 52 -44 4 -5 9 -7 12 -5 2 3 -16 27 -41 53 -25 27 -48 46 -51 43
-2 -3 1 -14 9 -23 11 -15 10 -15 -9 1 -14 13 -22 15 -22 6 0 -9 -8 -7 -27 5
l-28 18 24 -27z m246 -118 l40 -41 -42 34 c-24 19 -43 37 -43 42 0 12 4 9 45
-35z m61 -28 c31 -33 61 -60 66 -60 5 0 6 5 3 10 -3 6 -2 10 4 10 6 0 16 -10
22 -22 11 -21 11 -22 -4 -9 -15 12 -17 10 -13 -17 4 -35 -12 -34 -33 1 -13 20
-13 21 2 8 10 -7 17 -10 17 -5 0 5 -30 39 -67 76 -37 38 -65 68 -61 68 4 0 32
-27 64 -60z m-68 -6 c-4 -3 -12 5 -18 18 -12 22 -12 22 6 6 10 -10 15 -20 12
-24z m-182 -35 c19 -22 19 -22 -3 -10 -13 6 -23 16 -23 21 0 15 5 12 26 -11z
m29 -89 c3 -5 2 -10 -4 -10 -5 0 -13 5 -16 10 -3 6 -2 10 4 10 5 0 13 -4 16
-10z m240 -52 c22 -24 33 -37 26 -30 -32 27 -33 10 -1 -23 19 -19 28 -35 21
-35 -11 0 -11 -3 -1 -15 20 -25 -5 -17 -29 9 -13 14 -18 25 -12 27 6 2 -3 22
-21 44 -18 22 -22 32 -10 21 28 -25 29 -9 0 21 -12 13 -19 23 -17 23 3 0 23
-19 44 -42z m-165 7 c7 -9 8 -15 2 -15 -5 0 -12 7 -16 15 -3 8 -4 15 -2 15 2
0 9 -7 16 -15z m-59 -42 c13 -16 12 -17 -3 -4 -10 7 -18 15 -18 17 0 8 8 3 21
-13z m339 -78 c19 -19 32 -35 29 -35 -3 0 -20 16 -39 35 -19 19 -32 35 -29 35
3 0 20 -16 39 -35z m-320 -50 c7 4 16 1 21 -6 4 -8 20 -14 34 -14 28 -1 31 5
13 23 -7 7 -10 12 -7 12 3 0 16 -11 30 -26 18 -19 19 -23 6 -18 -15 5 -17 2
-13 -20 5 -28 -2 -33 -24 -13 -8 7 -7 1 3 -15 10 -16 16 -28 14 -28 -1 0 -38
37 -82 82 -44 46 -64 68 -43 49 21 -20 41 -30 48 -26z m5 45 c3 -6 -1 -7 -9
-4 -18 7 -21 14 -7 14 6 0 13 -4 16 -10z m-10 -20 c3 -6 -1 -7 -9 -4 -18 7
-21 14 -7 14 6 0 13 -4 16 -10z m96 -7 c13 -16 12 -17 -3 -4 -17 13 -22 21
-14 21 2 0 10 -8 17 -17z m-225 -58 c4 -10 13 -13 25 -10 11 4 19 2 19 -5 0
-6 8 -9 18 -6 12 4 29 -5 52 -29 19 -20 28 -35 20 -35 -8 0 -3 -11 15 -30 15
-16 33 -26 39 -23 6 4 7 2 3 -3 -5 -5 -14 -9 -20 -9 -7 -1 -11 -7 -9 -15 3
-11 -2 -9 -17 4 -11 10 -24 15 -30 12 -13 -8 -125 100 -117 113 3 5 -1 16 -9
24 -18 18 -19 27 -5 27 6 0 13 -7 16 -15z m194 -100 c9 -10 9 -15 1 -15 -6 0
-11 5 -11 10 0 6 -4 10 -10 10 -5 0 -6 -8 -3 -17 6 -16 5 -16 -11 -4 -13 11
-14 16 -4 22 18 12 24 11 38 -6z m95 -26 c14 -22 -3 -18 -26 7 -23 25 -23 26
-2 15 12 -6 25 -16 28 -22z m-151 -45 c5 -14 4 -15 -9 -4 -17 14 -19 20 -6 20
5 0 12 -7 15 -16z m86 -59 c13 -14 21 -25 18 -25 -2 0 -15 11 -28 25 -13 14
-21 25 -18 25 2 0 15 -11 28 -25z"/>
<path d="M1990 1300 c0 -5 5 -10 11 -10 5 0 7 5 4 10 -3 6 -8 10 -11 10 -2 0
-4 -4 -4 -10z"/>
<path d="M1792 1180 c2 -8 16 -15 31 -15 21 -1 24 2 14 13 -8 10 -12 11 -15 3
-3 -9 -8 -8 -20 1 -13 11 -14 11 -10 -2z"/>
<path d="M1666 1147 c5 -13 2 -16 -12 -10 -12 4 -15 3 -10 -6 5 -7 15 -10 23
-7 8 3 11 1 8 -4 -6 -10 58 -80 72 -80 4 1 -3 10 -16 21 -13 11 -21 22 -18 25
2 3 22 -9 43 -27 32 -27 30 -23 -11 19 -46 49 -55 73 -12 35 19 -18 19 -17 6
4 -15 26 -39 38 -39 21 0 -6 -9 -3 -20 7 -18 17 -20 17 -14 2z m39 -38 c11
-17 -1 -21 -15 -4 -8 9 -8 15 -2 15 6 0 14 -5 17 -11z"/>
<path d="M1960 1718 c0 -4 4 -8 9 -8 6 0 12 4 15 8 3 5 -1 9 -9 9 -8 0 -15 -4
-15 -9z"/>
<path d="M2060 1685 c13 -14 26 -25 28 -25 3 0 -5 11 -18 25 -13 14 -26 25
-28 25 -3 0 5 -11 18 -25z"/>
<path d="M2070 1706 c0 -2 8 -10 18 -17 15 -13 16 -12 3 4 -13 16 -21 21 -21
13z"/>
<path d="M368 1664 c13 -24 40 -49 47 -42 3 2 -9 18 -26 34 -24 22 -29 24 -21
8z"/>
<path d="M1960 1620 c0 -5 5 -10 10 -10 6 0 10 5 10 10 0 6 -4 10 -10 10 -5 0
-10 -4 -10 -10z"/>
<path d="M1360 1577 c0 -5 -4 -5 -10 -2 -5 3 -10 -1 -10 -11 0 -14 -2 -15 -17
-3 -15 12 -16 12 -10 -5 7 -17 6 -17 -10 -5 -15 12 -16 12 -10 -4 6 -16 5 -16
-21 0 -26 17 -26 17 -13 0 13 -17 12 -17 -19 -12 -28 5 -31 3 -26 -12 6 -15 5
-16 -11 -1 -10 8 -23 13 -30 11 -6 -2 -15 1 -19 8 -4 8 -3 9 4 5 7 -4 10 -2 7
6 -3 8 -14 14 -25 14 -10 0 -16 -4 -13 -9 3 -4 6 -19 8 -33 2 -26 50 -74 69
-70 6 2 7 1 3 -2 -4 -2 -3 -10 4 -18 18 -22 -2 -16 -30 8 -14 13 -11 6 8 -15
19 -20 38 -32 41 -27 3 5 26 -10 49 -34 34 -35 46 -42 56 -33 11 10 9 16 -8
35 -11 12 -18 22 -16 22 3 0 18 -14 35 -32 16 -17 23 -28 17 -24 -7 4 -13 3
-13 -3 0 -16 18 -22 23 -9 3 10 8 10 23 -2 10 -8 3 3 -15 23 -27 28 -32 40
-23 49 8 8 15 8 28 -3 16 -13 16 -12 7 6 -10 18 -8 20 20 20 18 0 42 -6 55
-13 16 -10 22 -10 22 -1 0 8 6 7 18 -3 9 -8 25 -13 35 -10 17 3 17 5 3 21 -15
17 -14 18 12 16 22 -1 28 3 28 19 0 12 -5 25 -10 29 -8 6 -7 10 1 14 8 3 3 13
-14 29 -27 25 -38 31 -28 15 12 -21 -42 -5 -69 20 -16 15 -35 25 -43 22 -7 -3
-13 -1 -13 5 0 5 -11 9 -25 8 -14 0 -25 -5 -25 -9z m200 -72 c11 -13 10 -14
-4 -9 -9 3 -16 10 -16 15 0 13 6 11 20 -6z m-79 -22 c13 -16 12 -17 -3 -4 -10
7 -18 15 -18 17 0 8 8 3 21 -13z m-151 -140 c0 -8 -9 0 -50 45 l-45 47 48 -45
c26 -24 47 -45 47 -47z"/>
<path d="M1470 1562 c0 -4 9 -13 19 -19 15 -10 20 -9 25 2 3 9 0 12 -10 8 -7
-3 -14 0 -14 6 0 6 -4 11 -10 11 -5 0 -10 -3 -10 -8z"/>
<path d="M2106 1562 c-2 -4 4 -8 14 -8 10 0 16 4 14 8 -3 4 -9 8 -14 8 -5 0
-11 -4 -14 -8z"/>
<path d="M2089 1496 c47 -48 52 -56 41 -75 -13 -25 -3 -44 34 -63 16 -8 14 -3
-9 23 -16 19 -21 27 -10 18 40 -32 49 -31 20 2 -16 18 -21 27 -10 18 39 -31
48 -33 30 -5 -10 14 -21 26 -26 26 -5 0 -9 5 -9 11 0 5 5 7 10 4 15 -9 12 4
-4 21 -19 19 -32 18 -16 -1 7 -8 8 -15 3 -15 -5 0 -28 20 -51 45 -23 25 -45
45 -49 45 -4 0 17 -24 46 -54z"/>
<path d="M459 1510 c20 -17 22 -23 11 -30 -8 -5 -11 -12 -7 -17 9 -8 28 17 24
31 -2 5 -14 16 -28 24 l-24 14 24 -22z"/>
<path d="M1647 1479 c7 -7 15 -10 18 -7 3 3 -2 9 -12 12 -14 6 -15 5 -6 -5z"/>
<path d="M2180 1476 c0 -5 8 -19 17 -30 10 -12 11 -15 3 -8 -23 20 -35 14 -15
-8 17 -19 20 -19 28 -4 7 12 3 22 -12 37 -11 12 -21 17 -21 13z"/>
<path d="M1960 1461 c0 -6 5 -11 11 -11 6 0 8 -8 5 -17 -3 -12 6 -26 27 -42
l32 -25 -29 32 c-17 18 -25 32 -19 32 5 0 34 -25 62 -55 29 -30 55 -55 58 -55
3 0 0 7 -7 15 -7 9 -10 18 -6 22 3 3 6 2 6 -4 0 -6 7 -13 15 -17 25 -9 17 10
-11 29 -15 9 -23 12 -20 6 18 -28 -16 -6 -57 38 -52 55 -67 67 -67 52z"/>
<path d="M1176 1406 c6 -15 4 -17 -7 -11 -12 7 -12 6 1 -11 22 -29 24 -30 17
-11 -8 21 6 22 23 2 7 -8 16 -13 20 -10 5 3 23 -7 42 -22 l33 -27 -30 35 c-16
18 -32 36 -34 39 -2 3 -6 -1 -8 -8 -4 -10 -14 -5 -35 15 -22 21 -27 23 -22 9z"/>
<path d="M1455 1390 c10 -11 20 -20 23 -20 3 0 -3 9 -13 20 -10 11 -20 20 -23
20 -3 0 3 -9 13 -20z"/>
<path d="M1706 1395 c4 -8 11 -15 16 -15 6 0 5 6 -2 15 -7 8 -14 15 -16 15 -2
0 -1 -7 2 -15z"/>
<path d="M1420 1390 c0 -5 5 -10 11 -10 5 0 7 5 4 10 -3 6 -8 10 -11 10 -2 0
-4 -4 -4 -10z"/>
<path d="M1670 1396 c0 -2 7 -7 16 -10 8 -3 12 -2 9 4 -6 10 -25 14 -25 6z"/>
<path d="M1361 1384 c0 -5 19 -25 42 -44 23 -19 36 -27 29 -18 -8 9 -10 23 -6
29 5 8 3 9 -5 4 -7 -4 -22 2 -37 16 -13 12 -24 18 -23 13z"/>
<path d="M1497 1367 c-3 -7 3 -13 14 -13 13 0 15 3 7 13 -6 7 -12 13 -13 13
-2 0 -5 -6 -8 -13z"/>
<path d="M575 1360 c3 -5 8 -10 11 -10 2 0 4 5 4 10 0 6 -5 10 -11 10 -5 0 -7
-4 -4 -10z"/>
<path d="M1155 1360 c3 -5 8 -10 11 -10 2 0 4 5 4 10 0 6 -5 10 -11 10 -5 0
-7 -4 -4 -10z"/>
<path d="M960 1300 c13 -9 13 -11 0 -21 -12 -8 -10 -9 8 -4 22 6 32 -9 12 -18
-6 -3 -5 -4 2 -2 7 1 26 -9 42 -24 16 -14 25 -19 21 -11 -15 26 -79 90 -90 90
-5 0 -3 -5 5 -10z"/>
<path d="M1215 1290 c-3 -6 1 -7 9 -4 18 7 21 14 7 14 -6 0 -13 -4 -16 -10z"/>
<path d="M1650 1291 c0 -6 4 -13 10 -16 6 -3 7 1 4 9 -7 18 -14 21 -14 7z"/>
<path d="M780 1284 c0 -4 8 -13 18 -21 13 -11 14 -14 2 -10 -27 8 -19 -43 10
-61 l25 -16 -25 29 c-18 20 -20 27 -8 22 13 -4 15 -2 11 10 -5 12 -3 14 7 8 7
-5 5 4 -6 18 -18 25 -34 35 -34 21z"/>
<path d="M1591 1278 c2 -2 25 -22 49 -45 41 -38 45 -40 46 -20 1 14 -11 31
-30 46 l-31 25 29 -32 c38 -41 20 -42 -19 -2 -16 17 -33 30 -39 30 -5 0 -7 -1
-5 -2z"/>
<path d="M1960 1277 c0 -11 60 -71 65 -65 3 2 -11 20 -30 38 -19 19 -35 31
-35 27z"/>
<path d="M1955 1240 c3 -5 8 -10 11 -10 2 0 4 5 4 10 0 6 -5 10 -11 10 -5 0
-7 -4 -4 -10z"/>
<path d="M2043 1242 c-16 -10 7 -46 40 -64 21 -11 21 -10 7 8 -8 10 -21 24
-29 30 -8 6 -11 16 -7 22 8 14 6 15 -11 4z"/>
<path d="M1534 1112 c28 -30 55 -45 41 -22 -3 6 -1 10 5 10 6 0 8 5 4 11 -4 8
-9 7 -15 -2 -6 -9 -12 -10 -16 -4 -5 6 -17 17 -28 25 -11 8 -7 0 9 -18z"/>
<path d="M1370 1123 c0 -6 8 -17 18 -24 16 -13 16 -13 2 6 -8 11 -16 22 -17
24 -2 2 -3 0 -3 -6z"/>
<path d="M1340 1116 c0 -2 7 -9 15 -16 13 -11 14 -10 9 4 -5 14 -24 23 -24 12z"/>
<path d="M2055 1110 c3 -5 8 -10 11 -10 2 0 4 5 4 10 0 6 -5 10 -11 10 -5 0
-7 -4 -4 -10z"/>
<path d="M1535 1080 c10 -11 20 -20 23 -20 3 0 -3 9 -13 20 -10 11 -20 20 -23
20 -3 0 3 -9 13 -20z"/>
<path d="M2010 1092 c0 -12 19 -26 26 -19 2 2 -2 10 -11 17 -9 8 -15 8 -15 2z"/>
<path d="M1430 1086 c0 -2 8 -10 18 -17 15 -13 16 -12 3 4 -13 16 -21 21 -21
13z"/>
<path d="M1593 1075 c0 -8 4 -12 9 -9 5 3 6 10 3 15 -9 13 -12 11 -12 -6z"/>
<path d="M1617 1055 c-4 -8 -1 -17 5 -21 7 -4 8 -3 4 4 -15 25 10 10 54 -30
44 -42 44 -42 -5 10 -27 28 -50 52 -51 52 -1 0 -4 -7 -7 -15z"/>
<path d="M1310 1051 c0 -6 4 -13 10 -16 6 -3 7 1 4 9 -7 18 -14 21 -14 7z"/>
<path d="M1314 1011 c20 -22 26 -25 26 -13 0 4 -10 13 -22 21 -23 14 -23 14
-4 -8z"/>
<path d="M1430 1026 c0 -2 7 -9 15 -16 13 -11 14 -10 9 4 -5 14 -24 23 -24 12z"/>
<path d="M1533 1000 c-1 -11 2 -22 6 -24 4 -3 7 4 6 14 -2 27 -10 33 -12 10z"/>
<path d="M1621 1011 c-10 -7 -7 -9 12 -8 14 1 23 5 20 10 -6 9 -15 9 -32 -2z"/>
<path d="M1593 962 c19 -20 23 -37 7 -27 -5 3 -18 1 -27 -5 -17 -11 -17 -11 1
-6 11 4 27 -2 42 -16 30 -29 31 -42 2 -27 -21 11 -22 11 -9 -4 21 -27 0 -20
-33 10 -17 15 -11 6 14 -20 50 -53 44 -64 -10 -15 -19 18 -10 7 20 -25 63 -66
57 -77 -10 -14 -39 37 -41 37 -11 5 45 -49 36 -57 -11 -12 -25 23 -35 40 -32
52 5 13 4 14 -4 3 -6 -8 -15 -10 -23 -6 -8 4 11 -15 41 -43 30 -28 52 -53 49
-57 -4 -3 -13 0 -21 7 -8 7 -30 27 -49 43 l-34 30 29 -32 c19 -21 24 -33 16
-33 -8 0 0 -15 20 -35 23 -24 36 -31 41 -23 5 8 14 5 28 -13 11 -13 20 -19 21
-12 0 6 -11 20 -25 31 -29 23 -32 34 -7 25 15 -6 15 -5 3 10 -8 11 -9 17 -2
17 6 0 18 -11 26 -24 16 -24 53 -47 39 -24 -5 8 -2 9 9 5 26 -10 20 0 -23 39
-22 20 -40 41 -40 48 0 6 17 -6 36 -27 20 -21 38 -36 42 -33 3 4 -17 26 -44
50 -27 24 -46 47 -43 51 4 3 26 -14 50 -39 23 -25 47 -46 52 -46 6 0 -2 14
-18 30 -18 19 -23 30 -15 30 8 0 -8 23 -35 51 -30 32 -42 49 -30 45 16 -6 14
-1 -9 23 -32 33 -50 43 -23 13z m74 -107 c8 -9 13 -18 11 -21 -3 -2 -13 5 -23
16 -21 23 -11 27 12 5z m-72 -133 c-7 -7 -45 29 -45 41 0 6 11 0 25 -13 14
-13 23 -26 20 -28z m76 26 c11 -21 11 -22 -4 -9 -10 7 -17 17 -17 22 0 15 9
10 21 -13z"/>
<path d="M1644 941 c22 -22 42 -39 44 -36 2 2 -3 12 -12 21 -9 9 -14 19 -11
22 3 4 11 0 16 -8 9 -12 10 -12 5 3 -6 20 12 23 20 3 3 -8 13 -17 22 -21 10
-4 5 6 -12 24 -25 26 -30 28 -43 15 -14 -13 -18 -13 -42 2 -19 12 -16 6 13
-25z"/>
<path d="M1932 964 c-7 -8 -8 -14 -3 -14 10 0 25 19 20 25 -2 1 -10 -3 -17
-11z"/>
<path d="M1425 950 c-3 -6 1 -7 9 -4 18 7 21 14 7 14 -6 0 -13 -4 -16 -10z"/>
<path d="M1895 950 c3 -5 8 -10 11 -10 2 0 4 5 4 10 0 6 -5 10 -11 10 -5 0 -7
-4 -4 -10z"/>
<path d="M1510 915 c13 -14 26 -25 28 -25 3 0 -5 11 -18 25 -13 14 -26 25 -28
25 -3 0 5 -11 18 -25z"/>
<path d="M1678 879 c20 -21 30 -42 27 -51 -4 -10 4 -22 22 -33 l28 -18 -25 29
-25 28 30 -18 30 -19 -32 35 c-45 46 -42 60 3 17 32 -29 34 -30 20 -7 -17 26
-43 43 -60 39 -5 -1 -18 6 -30 16 -11 10 -6 2 12 -18z"/>
<path d="M1169 837 c15 -19 1 -23 -16 -6 -9 9 -12 7 -10 -9 0 -11 4 -19 8 -16
4 2 10 0 14 -6 10 -17 25 -11 19 8 -5 14 -3 14 13 -3 10 -11 29 -29 42 -40 24
-19 23 -18 -3 17 -15 20 -39 44 -54 54 -24 16 -26 16 -13 1z"/>
<path d="M1270 765 c13 -14 25 -23 28 -21 4 5 -35 46 -45 46 -3 0 4 -11 17
-25z"/>
<path d="M1030 745 c7 -9 15 -13 17 -11 7 7 -7 26 -19 26 -6 0 -6 -6 2 -15z"/>
<path d="M1520 746 c0 -2 8 -10 18 -17 15 -13 16 -12 3 4 -13 16 -21 21 -21
13z"/>
<path d="M1630 732 c0 -10 26 -34 50 -47 8 -4 2 6 -14 23 -32 34 -36 37 -36
24z"/>
<path d="M1525 710 c11 -14 35 -41 53 -61 l34 -37 -23 -8 c-13 -4 -31 -7 -39
-5 -10 2 -7 -6 9 -22 18 -20 26 -23 36 -14 7 7 9 14 4 15 -5 2 -9 8 -9 13 0 4
7 5 17 2 10 -4 14 -2 10 4 -4 6 -2 13 3 15 6 2 -18 30 -52 63 -34 33 -54 49
-43 35z m60 -130 c3 -5 1 -10 -4 -10 -6 0 -11 5 -11 10 0 6 2 10 4 10 3 0 8
-4 11 -10z"/>
<path d="M1560 706 c0 -6 51 -57 80 -81 l25 -20 -24 28 c-29 33 -17 36 18 5
22 -20 23 -20 8 -2 -21 26 -22 35 0 27 11 -4 14 -3 9 6 -5 7 -14 10 -21 7 -8
-3 -19 2 -26 10 -6 8 -17 13 -23 11 -6 -3 -19 0 -28 5 -10 5 -18 7 -18 4z m55
-26 c3 -5 1 -10 -4 -10 -6 0 -11 5 -11 10 0 6 2 10 4 10 3 0 8 -4 11 -10z"/>
<path d="M1477 689 c7 -7 15 -10 18 -7 3 3 -2 9 -12 12 -14 6 -15 5 -6 -5z"/>
<path d="M1350 687 c0 -2 14 -16 31 -33 16 -16 28 -22 24 -14 -5 13 -55 56
-55 47z"/>
<path d="M1340 667 c0 -2 15 -16 33 -33 l32 -29 -29 33 c-28 30 -36 37 -36 29z"/>
<path d="M1516 648 c16 -18 17 -21 2 -15 -12 4 -15 2 -11 -9 3 -9 12 -13 21
-9 8 3 21 0 28 -6 11 -9 14 -9 14 0 0 6 -7 14 -15 17 -8 4 -15 11 -15 17 0 6
11 0 25 -13 14 -13 25 -19 25 -13 0 5 -10 19 -23 31 -24 23 -43 30 -32 12 3
-5 1 -10 -4 -10 -6 0 -11 5 -11 10 0 6 -5 10 -12 10 -6 0 -3 -10 8 -22z"/>
<path d="M1740 656 c0 -2 8 -10 18 -17 15 -13 16 -12 3 4 -13 16 -21 21 -21
13z"/>
<path d="M1426 632 c-3 -4 4 -9 15 -9 23 -2 25 3 4 10 -8 4 -16 3 -19 -1z"/>
<path d="M1478 630 c14 -17 16 -34 2 -25 -5 3 -18 1 -28 -4 -13 -7 -22 -7 -30
1 -7 7 -12 8 -12 2 0 -5 28 -36 62 -69 35 -33 47 -42 27 -20 -46 53 -67 80
-52 72 6 -4 13 -2 15 4 2 7 9 5 17 -5 12 -14 11 -16 -5 -10 -16 6 -15 3 5 -19
14 -15 29 -27 35 -27 5 0 1 7 -10 16 -14 11 -16 17 -6 21 10 4 10 8 1 19 -8
10 -8 14 0 14 10 0 14 -11 13 -35 -1 -5 11 -19 26 -29 l27 -19 -24 26 c-32 35
-16 35 23 0 28 -26 28 -25 -3 9 -20 22 -30 41 -26 49 6 8 4 10 -4 4 -7 -4 -24
3 -39 16 -15 13 -21 17 -14 9z"/>
<path d="M1382 591 c18 -21 49 -51 68 -66 19 -16 6 2 -30 38 -72 75 -89 87
-38 28z"/>
<path d="M1735 610 c-3 -6 1 -7 9 -4 18 7 21 14 7 14 -6 0 -13 -4 -16 -10z"/>
<path d="M1060 555 c7 -9 15 -13 17 -11 7 7 -7 26 -19 26 -6 0 -6 -6 2 -15z"/>
<path d="M1525 510 c3 -5 8 -10 11 -10 2 0 4 5 4 10 0 6 -5 10 -11 10 -5 0 -7
-4 -4 -10z"/>
<path d="M1125 490 c10 -11 20 -18 23 -15 7 6 -18 35 -31 35 -5 0 -2 -9 8 -20z"/>
<path d="M1092 458 c2 -6 10 -14 16 -16 7 -2 10 2 6 12 -7 18 -28 22 -22 4z"/>
<path d="M1190 460 c0 -5 5 -10 11 -10 5 0 7 5 4 10 -3 6 -8 10 -11 10 -2 0
-4 -4 -4 -10z"/>
<path d="M1165 450 c3 -5 8 -10 11 -10 2 0 4 5 4 10 0 6 -5 10 -11 10 -5 0 -7
-4 -4 -10z"/>
<path d="M1490 450 c0 -5 5 -10 11 -10 5 0 7 5 4 10 -3 6 -8 10 -11 10 -2 0
-4 -4 -4 -10z"/>
<path d="M1615 450 c3 -5 8 -10 11 -10 2 0 4 5 4 10 0 6 -5 10 -11 10 -5 0 -7
-4 -4 -10z"/>
<path d="M1385 360 c10 -11 20 -20 22 -20 2 0 -2 9 -9 20 -7 11 -17 20 -22 20
-5 0 -1 -9 9 -20z"/>
<path d="M1317 269 c7 -7 15 -10 18 -7 3 3 -2 9 -12 12 -14 6 -15 5 -6 -5z"/>
<path d="M1000 262 c0 -5 9 -17 20 -27 12 -10 19 -24 16 -31 -2 -6 10 -22 27
-34 l32 -23 -22 25 c-41 44 -24 43 25 -2 26 -25 16 -12 -23 28 -73 75 -75 77
-75 64z"/>
<path d="M977 240 c-4 -14 -10 -18 -24 -13 -15 5 -13 1 6 -20 14 -15 33 -27
43 -27 11 0 16 -4 13 -10 -3 -5 -3 -15 1 -21 4 -8 9 -7 14 2 6 9 12 9 25 -4 9
-10 19 -17 23 -17 4 1 -8 13 -26 29 -19 17 -30 34 -27 42 3 8 -5 25 -18 37
-24 23 -24 23 -30 2z m43 -32 c0 -6 -6 -5 -15 2 -8 7 -15 14 -15 16 0 2 7 1
15 -2 8 -4 15 -11 15 -16z m-30 -3 c11 -13 10 -14 -4 -9 -9 3 -16 10 -16 15 0
13 6 11 20 -6z"/>
<path d="M1154 201 c4 -6 16 -16 28 -22 15 -8 18 -8 14 0 -4 6 -16 16 -28 22
-15 8 -18 8 -14 0z"/>
<path d="M1090 136 c0 -2 7 -7 16 -10 8 -3 12 -2 9 4 -6 10 -25 14 -25 6z"/>
</g>
</svg>
